<?xml version="1.0" encoding="utf-8"?>
<!-- Generator: Adobe Illustrator 23.0.0, SVG Export Plug-In . SVG Version: 6.00 Build 0)  -->
<svg version="1.1" xmlns="http://www.w3.org/2000/svg" xmlns:xlink="http://www.w3.org/1999/xlink" x="0px" y="0px"
	 viewBox="0 0 500 500" style="enable-background:new 0 0 500 500;" xml:space="preserve">
<style type="text/css">
	.st0{display:none;}
	.st1{display:inline;fill:#FFF3E9;}
	.st2{fill:none;stroke:#42210B;stroke-width:0.5;stroke-miterlimit:10;}
	.st3{fill:none;stroke:#42210B;stroke-width:0.25;stroke-miterlimit:10;}
	.st4{fill:#42210B;}
</style>
<g id="BACKGROUND" class="st0">
	<rect class="st1" width="500" height="500"/>
</g>
<g id="OBJECTS">
	<path class="st2" d="M500.4,40.3c-8.2,2.2-16.5,4.3-24.7,6.5c-1.3,0.3-2.6,0.7-3.9,0.6c-1-0.1-1.1,0.3-1.1,1.2
		c0,6.1,0,12.1-0.1,18.2c-0.2,12.7,0.1,25.3-0.2,38c-0.5,23.2-0.2,46.5-0.2,69.7c0,6.8,0.1,13.7,0.3,20.5c0.4,11,0.5,22,0.7,33.1
		c0.2,11.2,0.8,22.3,1,33.5c0.2,11.4,0.2,22.7,0.1,34c0,1.4-0.1,2.8-0.2,4.1c-0.1,0.8,0.2,1.1,1,1.1c3.4,0,6.7,0.2,10.1,0.2
		c0.7,0,1.3,0.1,1.9,0.3c1.3,0.3,1.8,1.2,1.9,2.5c0.4,5,0.3,10,0.1,15c-0.1,4.7-0.1,9.4,0,14c0,0.8,0,1.6,0,2.4
		c-0.1,1.9-0.1,1.9,1.9,2.4c2.9,0.7,5.7,1.4,8.6,2.2c0.7,0.2,1.3,0.5,1.8,1c0.1,0.1,0.3,0.3,0.1,0.5c-0.1,0.2-0.3,0.2-0.5,0.1
		c-3.6-1.5-7.4-1.9-11.2-2.8c-6.4-1.6-13-2.7-19.4-4.6c-0.5-0.2-0.9-0.1-1.4,0.1c-1.9,0.6-3.9,0.8-5.8,1.1c-2.1,0.3-4.2-0.1-6.2-0.8
		c-3.2-1-6.4-1.4-9.7-1.4c-4.3,0-8.5,0-12.8,0c-4.1,0-8.3-0.1-12.4-0.7c-1.5-0.2-3.1,0.6-4.4,1.5c-4.8,3.3-10.2,5.2-15.9,6.4
		c-3,0.6-6,0.7-9.1,1c-4.8,0.5-9.5,1.4-14.2,2.5c-2.8,0.7-5.7,0.5-8.5,0.3c-1.1-0.1-2.1,0-3.1,0.1c-0.2,0.3,0,0.5,0.1,0.6
		c0.7,1.8,0.5,2.4-1.3,3.3c-3.5,1.7-7.2,2.5-11,2.9c-3.9,0.4-7.8-0.3-11.6-0.6c-3.5-0.3-7.1-0.2-10.6,0.2c-4.6,0.4-9.2,0.6-13.9,0.7
		c-0.7,0-1.4,0.1-2.1,0.1c-2,0.2-3.3-0.8-3.3-2.7c-0.1-3.3,0.4-6.7,0.3-10c-0.1-2.2-0.5-4.3-1.2-6.4c0.3,4.5-0.8,8.9-1.5,13.3
		c-0.1,0.9-0.5,1.2-1.4,1.1c-5.6-0.7-11.2,0-16.8,0.7c-6.2,0.7-12.3,2.1-18.6,2.5c-3.5,0.2-7,0.4-10.5,0.2c-1.6-0.1-3.2-0.3-4.6-1.1
		c-0.7-0.4-1.3,0-1.8,0.3c-4.2,2.5-8.6,4.2-13.4,5.3c-3.5,0.8-7,1.1-10.5,1.2c-5.9,0.1-11.5,1.1-16.7,4.2c-0.6,0.4-0.9,0.7-0.9,1.5
		c0,1.8-0.5,2.2-2.3,1.7c-5.2-1.3-9.9-3.6-13.8-7.3c-1.1-1-1.7-2.2-2.6-3.4c-0.2-0.4-0.5-0.4-0.9-0.4c-4.2-0.5-7.5,2.1-11.3,3.1
		c-11,2.7-21.2,7.6-31.7,11.6c-7.7,2.9-15,6.6-21.4,11.8c-1.9,1.5-4.3,2.2-6.3,3.7c-0.3,0.2-0.7,0.3-1-0.1c-0.2-0.4,0.1-0.6,0.4-0.8
		c0.4-0.3,0.8-0.6,1.2-0.8c3.8-1.5,6.7-4.2,10-6.5c4.2-2.9,8.7-5.1,13.5-6.9c7.9-3,15.5-6.6,23.4-9.5c2.8-1.1,5.7-2,8.7-2.8
		c2.6-0.7,5.1-1.6,7.6-2.6c1.7-0.7,3.5-1.6,5.6-1.3c-1-2.2-1.6-4.4-2.8-6.3c-4.2-6.7-7.6-13.9-11.1-21c-2.3-4.7-4.2-9.6-7.1-14
		c-1-1.6-2.2-3.1-3.5-4.5c-0.9-1-1.6-2.3-2.5-3.3c-2.5-3-5.2-5.9-7.5-9.2c-0.3-0.5-0.7-0.9-1-1.4c-4.5-8.1-10.8-14.5-18.5-19.6
		c-0.8-0.6-1.7-1.2-2.5-1.8c-1.8-1.3-3.2-2.9-3.3-5.3c0-1-0.6-1.2-1.4-1.1c-2.3,0.4-4.4,1.3-6.2,2.9c-6.4,6.2-13.7,10.9-21.9,14.2
		c-0.1,0-0.1,0.1-0.3,0.3c1.1,0.1,2,0.3,3,0.4c0.4,0.1,0.9,0.2,0.9,0.6c-0.1,0.5-0.6,0.4-0.9,0.3c-5.3-0.6-10.6-0.7-15.9-0.8
		c-2.6-0.1-5.3,0-7.9-0.1c-5.1-0.2-10.2-0.3-15.2-0.6c-3.2-0.2-6.3-0.3-9.5,0c-1.7,0.2-3.2,0.7-4.8,1.3c-0.6,0.2-0.7,0.6-0.3,1.1
		c0.7,1,1.5,1.9,2.2,2.9c2.1,3.1,3.1,6.5,4,10.1c1.6,6.5,4.5,12.5,7.1,18.6c1.4,3.2,2.5,6.4,4.4,9.3c0.3,0.5,0.7,0.7,1.3,0.8
		c7.2,1.2,14.4,2.6,21.6,4c4.6,0.9,9.2,1.9,13.9,2.5c4,0.5,6.7,2.9,8.7,6c2.4,3.7,3.4,7.9,3.7,12.2c0.2,4.3,1,8.5,1.4,12.7
		c0.3,3.7,0.6,7.4,0.9,11c0.5,5.5,0.5,11,0.5,16.4c0,0.4-0.2,0.9,0.5,0.9c3.5,0.3,6.8,1.7,10.2,2.7c4.4,1.3,8.8,2.5,13.2,3.7
		c0.2,0,0.3,0,0.5,0.1c0.3,0.2,1.1,0.1,1,0.7c-0.1,0.4-0.8,0.2-1.2,0.1c-6.9-1.8-13.7-3.7-20.5-5.8c-1.1-0.4-2.3-0.6-3.4-0.8
		c-0.3,0.3-0.2,0.6-0.2,0.8c-0.1,4.5-0.1,9-0.3,13.5c0,1.4-0.2,2.8-0.3,4.1c0,0.4-0.1,0.6,0.4,0.8c6.4,1.3,12.2,4.4,18.3,6.4
		c2.2,0.7,4.4,1.7,6.6,2c3.8,0.6,7.6,1,11.5,0.5c4.5-0.6,9-0.9,13.5-1.7c5-0.8,10-1.7,15-2.5c6-1.1,12.1-2,18.2-2.6
		c11.4-1.1,22.7-3.1,33.8-6c7.2-1.9,14.6-3,22-4.1c4.7-0.7,9.4-1.6,14.2-2.3c5.1-0.8,10.3-1.3,15.5-1.9c2.5-0.3,4.9-0.4,7.4-0.9
		c1-0.2,1.6-0.7,1.9-1.6c0.8-2,0.9-4.1,0.8-6.2c-0.1-3.4,0.3-6.8-0.2-10.1c-0.1-0.9-0.4-1.8-0.5-2.7c-0.2-1.3-1-2-2.3-2.1
		c-3.4-0.5-6.6-1.8-9.8-2.8c-13.3-4.2-26.7-7.9-40.2-11.2c-4.9-1.2-9.8-2.7-14.8-3.7c-0.3-0.1-0.5-0.2-0.7-0.5c1-0.5,1.9,0,2.8,0.2
		c6.3,1.3,12.5,3.1,18.9,4.5c12.9,2.8,25.4,6.8,37.9,10.8c2,0.6,4,1.4,6.2,1.8c2.2,0.4,3.5,1.8,3.9,4.1c0.4,2.5,0.6,5,0.5,7.5
		c-0.1,2.6,0.1,5.1-0.2,7.7c-0.1,1.2,0.9,1.4,1.6,1.6c2.5,0.7,5.1,0.7,7.6,0.4c10.1-1.3,20.1-2.8,30.2-3.8c6.5-0.7,12.9-2,19.4-3
		c8.8-1.4,17.6-2.9,26.5-4.1c3.6-0.5,7.2-0.6,10.8-1.3c-0.4-1.3-0.9-2.5-1.2-3.8c-0.9-3.5,1.1-7.9,4.4-9.5c0.3-0.1,0.9-0.3,0.8-0.5
		c-0.3-0.6-0.5,0.1-0.8,0.2c-0.3,0.1-0.6,0.1-0.8-0.2c-0.5-0.7-1-0.7-1.3,0.1c-0.2,0.5-0.4,1-1.1,1c-0.7,0-0.6-0.6-0.7-1.1
		c-0.1-0.5-0.6-0.4-0.9-0.1c-0.5,0.4-1,0.7-1.6,0.8c-0.4,0.1-0.7,0-0.9-0.4c-0.2-0.4,0-0.7,0.3-1c0.7-0.7,1.5-0.9,2.5-0.9
		c0.4,0,1,0.2,1-0.6c0-0.3,0.3-0.5,0.6-0.5c0.5,0,0.8,0.3,1.1,0.7c0.2,0.3,0.1,0.8,0.7,0.7c0.8-0.1,0.1-0.6,0.3-0.8
		c1.2-1.1-0.2-1.3-0.7-1.7c-0.5-0.3-1.1-0.5-1.7-0.6c-2.8-0.2-4.7-2.4-7.3-3.1c-0.3-0.1-0.6-0.2-0.9-0.3l0,0
		c-0.4-0.5-0.3-0.9,0.3-1.3c1.8-1.1,3.5-2.2,5.2-3.4c1-0.7,2-0.9,3.1-0.5c0.8,0.3,0.9,0,1.1-0.6c0.4-1.1,0.9-2.2,1.3-3.3
		c0.5-1.1,1.3-1.8,2.4-2c1.1-0.2,2-0.7,2.8-1.4c1.1-1,2.4-1.8,4.1-1c-0.1-1.5-0.1-1.5-1.4-1.8c-0.5-0.1-0.8-0.4-0.7-0.8
		c0.1-0.7,0.8-0.6,1.4-0.6c-0.2-0.7-0.9-0.7-1.1-1.3c-0.1-0.4-0.3-0.7-0.1-1.2c0.1-0.2,0.3-0.3,0.5-0.3c0.5,0.1,0.6,0.5,0.7,0.9
		c0.2,0.7,0.3,1.5,1.4,1.3c0.8-0.1,0.9,0.7,0.7,1.2c-0.3,1,0.2,1.6,1,2.4c-0.3-2.5,1.4-3.7,2.6-5.1c1.3-1.5,3.4-1.6,5.3-2
		c2.5-0.5,4.7,0.5,6.9,1.4c0.7,0.3,0.9,1,1.3,1.8c0.8-1.4,2.3-1.9,3.3-3c0.7-0.8,1.6-1.2,2.7-1.3c1-0.1,2-0.3,3-0.4
		c2.8-0.2,4.7,1.4,6.2,3.5c0.7,0.9,1.3,1.9,2,2.9c0.4,0.6,1.2,0.2,1.5,0.9c0.1,0.1,0.7-1,0.5-1.4c-0.1-0.2-0.4-0.5-0.4-0.7
		c0-0.5-0.6-1.1,0.1-1.4c0.7-0.2,0.6,0.5,0.9,0.9c0.7-0.6,0.4-1.5,0.7-2.2c0.1-0.4,0.1-1.2,0.8-0.9c0.6,0.2,0.4,0.8,0.2,1.2
		c-0.2,0.4-0.5,0.8-0.7,1.3c-0.1,0.4-0.9,0.9,0.3,1.3c0.7,0.2,0.4,1-0.3,1.4c-0.4,0.2-0.7,0.4-0.5,1c0.3,0.6,0.7,0.1,0.9,0.1
		c2.2-0.2,3.8,0.7,5,2.6c0.1,0.2,0.2,0.4,0.4,0.4c1.7-0.1,2.4,1.5,3.8,2.1c0.5,0.2,1,0.6,1,1.1c-0.1,1,0.6,1.6,0.9,2.4
		c0.7,1.6,0.5,3.3,0.2,5c0,0.2-0.3,0.3,0,0.5c0.1,0.1,0.2,0,0.4,0c0.4,0,0.2-0.3,0.2-0.4c0-0.1,0-0.3,0-0.4c0.1-0.5,0.3-1.1,1-1.1
		c0.7,0,0.6,0.6,0.6,1.1c0.5-0.1,0.8-0.3,0.9-0.8c0.2-0.4,0.5-0.8,0.8-1.1c0.3-0.4,0.7-0.8,1.2-0.3c0.4,0.5,0,0.8-0.3,1.1
		c-0.1,0.2-0.6,0.2-0.2,0.6c0.3,0.3,0.3,0.6,0,0.8c-0.3,0.3-0.7,0.3-0.9,0.1c-0.6-0.5-0.9,0-1.2,0.3c-0.6,0.5,0.2,0.5,0.3,0.8
		c0.1,0.3,0.2,0.7-0.1,0.9c-0.4,0.3-0.9,0.2-1.4,0c-0.2-0.1-0.3-0.8-0.7-0.4c-0.5,0.4,0.3,0.5,0.4,0.8c0.5,1.1-0.5,0.9-1,1.1
		c0.3,0.8,0.8,1.4,1.4,1.9c1.9,1.6,2,3.7,1.7,5.9c-0.2,1.3-0.2,1.3,1,0.9c8.6-2.5,17.4-4.3,26.2-6.1c3.2-0.7,6.3-1.7,9.6-2.2
		c0,0.4,0,0.8,0,1.2c-1.9,0.2-3.7,0.8-5.6,1.2c-4.9,1.1-9.7,2.1-14.6,3.2c-0.5,0.1-1,0-0.7,0.9c1.5,5.1,3,10.2,4.5,15.4
		c0.2,0.6,0.4,0.8,1,0.6c2.3-0.5,4.6-1.1,6.9-1.6c2.8-0.6,5.6-1.2,8.4-1.8c0,0.6,0,1.1,0,1.7c-5,0.6-9.9,1.9-15,2.5
		c-0.6,0.1-0.8,0.4-0.5,1c0.9,2.5,1.9,4.9,2.6,7.4c0.3,0.9,0.6,1.2,1.5,1.4c3.8,0.9,7.6,1.8,11.4,3.1c0,0.6,0,1.1,0,1.7
		c-3.2-1.1-6.6-1.9-9.9-2.7c-9-2.2-18.2-3.8-27.4-5.3c-4.4-0.7-8.7-1.6-13.1-2.1c-0.8-0.1-1,0.1-1,0.9c0.1,5.2,0.1,10.3,0.1,15.5
		c0,0.5,0.3,0.7,0.5,1c1.3,1.4,2.7,2.7,4,4.1c0.3,0.3,0.7,0.5,0.4,1.1c-0.5-0.2-0.8-0.5-1.1-0.9c-1.3-1.2-2.6-2.5-3.8-3.8
		c-0.5-0.5-1.1-0.7-1.7-0.1c1.1,1.2,2.2,2.4,3.3,3.6c1,1.2,2.3,2.2,2.7,3.8c-0.3,0-0.3-0.2-0.4-0.4c-1.7-1.9-3.5-3.9-5.2-5.8
		c-1.1-1.2-1.2-1.2-2.8-0.7c2.1,2.5,4.3,4.8,6.1,7.4c-2.3-2.2-4.5-4.5-6.5-6.9c-0.6-0.7-1-0.5-1.7-0.3c0.2,0.3,0.4,0.5,0.6,0.7
		c1.6,1.8,3.2,3.5,4.8,5.3c0.2,0.2,0.6,0.5,0.3,0.8c-0.4,0.3-0.5-0.2-0.7-0.4c-1.8-1.9-3.6-3.8-5.4-5.6c-0.1-0.1-0.3-0.3-0.5-0.4
		c-0.7-0.4-1.5-0.3-1.9,0.1c-0.3,0.3,0.3,0.8,0.7,1.1c1,1.1,2,2.2,2.9,3.3c0.4,0.4,0.8,0.8,0.9,1.4c-0.6,0.2-0.7-0.3-0.9-0.5
		c-1.3-1.4-2.7-2.7-3.9-4.2c-0.8-0.9-1.7-1.3-2.9-0.7c1.8,2,3.9,3.9,5.6,6.1c-0.5,0.2-0.6,0.1-0.7,0c-1.6-2.1-3.7-3.8-5.5-5.7
		c-0.2-0.2-0.5-0.6-0.9-0.5c-1.3,0-2.6,0-4.2,0c1.9,2.2,3.6,4.1,5.3,6.2c-0.7,0.2-0.8-0.2-1.1-0.5c-1.4-1.5-2.9-3.1-4.3-4.7
		c-0.7-0.9-1.5-1.2-2.6-0.9c1.1,1.9,2.7,3.5,4,5.3c-1.9-1.3-3.2-3.1-4.6-4.8c-0.5-0.6-1-0.8-1.7-0.6c1.2,2,3,3.6,4,5.6
		c-1.5-1.3-2.9-2.8-4-4.5c-0.9-1.4-2.1-1.6-3.7-1.6c1.4,1.7,2.7,3.2,4,4.7c-0.1,0.1-0.2,0.1-0.2,0.2c-2.1-1.5-3.4-3.9-5.5-5.2
		c1.1,2.2,2.7,3.9,4.1,5.8c-1.8-1.2-3-2.8-4.1-4.5c-0.8-1.3-1.8-1.9-3.4-1.7c1.1,1.5,2.1,2.9,3.2,4.4c-0.5,0.1-0.7-0.1-0.9-0.3
		c-1-1-1.8-2.2-2.6-3.4c-0.8-1.1-0.9-1.2-2.3-0.9c1.2,1.7,2.9,3,3.9,4.9c-1.6-1.5-3.1-3-4.5-4.6c-0.8-1-1.9-1.3-3.2-1.5
		c1.8,2,3.5,3.8,5.2,5.6c-0.1,0.1-0.2,0.1-0.2,0.2c-2-2.1-4.1-4.1-6.1-6.2c-0.2,1.2,1,1.7,0.9,2.9c-1.2-1-1.9-2.3-2.8-3.4
		c-0.2-0.2-0.2-0.5,0-0.7c0.6-0.6,0.5-1.5,0.6-2.2c0.3-4.3,0.5-8.7,0.8-13c0-0.7,0-0.8-0.7-0.8c-5.2-0.1-10.3-0.5-15.5-0.5
		c-9.7,0-19.4,0-29.1,0.8c-7.9,0.7-15.8,1.5-23.6,2.6c-7.8,1.1-15.5,2.5-23.1,4.7c-6.9,2-13.5,4.7-19.6,8.6
		c-1.8,1.1-3.3,2.5-4.1,4.5c-0.1,0.3-0.4,0.6-0.2,1c0.6,1.5,1.1,3,2,4.4c0.1,0.2,0.5,0.5,0.1,0.7c-0.3,0.2-0.5-0.1-0.6-0.4
		c-0.6-1-1.1-2-1.8-3.3c0.1,1.1-0.3,2.1,0.4,2.5c0.8,0.4,0.9,1.1,1.2,1.7c0.4,0.8,0.5,1.8,1.2,2.8c-0.1-0.4-0.1-0.5-0.1-0.6
		c-0.1-0.4-0.5-0.9,0-1c0.5-0.2,0.5,0.5,0.6,0.9c1,2.3,2,4.5,3,6.8c0.1,0.3,0.2,0.8,0.9,0.8c-0.8-1.7-1.5-3.3-2.3-5
		c-0.2-0.4-0.8-1-0.3-1.3c0.5-0.3,0.6,0.6,0.8,1c0.8,1.7,1.6,3.4,2.3,5.2c0.4,0.9,1,1.6,2.3,2c-2.2-3.2-2.6-7.1-5.6-9.5
		c-0.1-0.1-0.2-0.2-0.3-0.4c-0.2-0.2-0.4-0.5-0.1-0.7c0.3-0.2,0.5,0,0.7,0.3c0.6,1.1,1.5,1.9,2.5,2.6c3.7,2.9,7.9,5,12.1,7
		c9,4.4,18.4,7.5,28,10c9.1,2.4,18.3,4.2,27.7,5.3c5.6,0.7,11.2,1.3,16.8,2c5.8,0.8,11.7,1.2,17.6,1.6c3.9,0.3,7.9,0.5,11.8,0.8
		c6.4,0.4,12.7,1,19.1,1.4c6.7,0.4,13.3,0.6,20,0.7c10.1,0.2,20.3,0.5,30.4,0.5c5.6,0,11.3-0.3,16.9-0.5c0,0.7,0,1.5,0,2.2
		c-1.1-0.9-1.1-0.9-1.9-0.8c0.6,0.9,1,1.8,1.9,2.5c0,0.2,0,0.5,0,0.7c-1-0.7-1.6-1.7-2.3-2.6c-0.4-0.5-0.8-0.8-1.5-0.5
		c0.6,1.3,1.8,2.3,2.3,3.7c-0.5,0.1-0.7-0.3-0.8-0.5c-0.7-0.9-1.3-1.7-2-2.6c-0.4-0.6-0.9-0.9-1.7-0.6c0.4,0.9,1.1,1.6,1.6,2.4
		c1,1.7,2.3,2.6,4.4,2.2c0,0.4,0,0.8,0,1.2c-1.4,0.1-2.8,0.2-4.3,0.2c-6.5,0.1-13,0.4-19.5,0.3c-7.4-0.1-14.8,0.2-22.2,0
		c-4.6-0.1-9.2-0.3-13.8-0.2c-3.4,0-6.9-0.3-10.3-0.6c-7.7-0.6-15.4-1.2-23-1.7c-4.8-0.3-9.6-0.8-14.4-1.4c-5.7-0.6-11.3-1.5-17-2.3
		c-8.9-1.4-17.8-2.9-26.5-5.2c-10.3-2.7-20.6-5.4-30.4-9.6c-1.8-0.8-3.4-0.8-5.2-0.3c-3.5,1.1-7.1,2-10.8,2.3c-0.8,0.1-1,0.3-1,1
		c0.1,3.8,0.1,7.6,0.1,11.5c0,12.6,0.2,25.3,0.4,37.9c0.1,2.6,0,5.3,0,7.9c-0.9,0-1.8,0-2.7,0c-0.4-0.6-0.8-1.1-1.2-1.7
		c-0.4-0.7-0.8-1.4,0-2c0.2-0.1,0.1-0.3,0-0.4c-0.7-1.1-0.3-2.3-0.3-3.7c0.7,0.9,1.2,1.5,1.7,2.2c-0.5-1.4-1.7-2.3-2.1-3.8
		c0.8,0,0.7,0.9,1.3,0.9c0.3,1.1,1.2,1.9,1.9,2.8c-0.4-1-1-2-1.9-2.7c-0.1-0.8-0.8-1.3-1.1-2c-0.1-0.3-0.6-0.7-0.3-0.9
		c0.4-0.3,0.5,0.3,0.7,0.6c0.8,1.1,1.5,2.3,2.5,3.2c-1-1.7-2.1-3.3-3.1-4.9c-0.2-0.3-0.7-0.7-0.1-0.9c0.8-0.3,0.3-0.5,0.1-0.8
		c-0.1-0.2-0.4-0.5-0.4-0.7c0.1-0.9,0.7-1.7,0.3-2.7c-0.1-0.2,0.3-0.3,0.4-0.2c0.2,0.2,0.3,0.5,0.5,0.7c0-1.1-1.1-1.6-0.9-3
		c1.1,1.6,2,2.9,2.9,4.2c0.2-0.6-0.1-0.8-0.3-1.1c-0.9-1.7-2.7-2.8-2.7-5.1c0-0.8,0.2-0.6,0.7-0.6c-0.3-0.5-0.5-0.9-0.7-1.3
		c-0.2-0.3-0.5-0.6,0-0.8c0.4-0.2,0.5,0.3,0.6,0.5c0.7,1.2,1.4,2.4,2.3,3.4c-0.6-2.1-2.5-3.6-3.2-5.7c0.5-0.2,0.6,0.3,0.9,0.3
		c0-0.9-1.2-1.5-0.7-2.1c0.6-0.8-1-1.3,0-1.9c1,1.3,1.7,2.9,2.9,4.1c-0.9-2.2-2.9-3.9-3.1-6.5c0-0.2-0.4-0.5,0.1-0.7
		c0.3-0.1,0.4,0.2,0.5,0.4c0.8,1.2,1.5,2.5,2.6,3.7c0.1-1.1-0.8-1.6-1.1-2.3c-0.8-1.7-2.9-2.8-1.9-5.3c1.1,1.4,1.8,3,3,4.3
		c0.2-0.6,0-1-0.3-1.4c-0.9-1.3-1.8-2.7-2.7-4.1c-0.2-0.3-0.6-0.7-0.1-0.9c0.5-0.2,0.3-0.5,0.2-0.7c-0.1-0.3-0.4-0.6,0-0.8
		c0.3-0.1,0.4,0.3,0.6,0.5c0.8,1.2,1.4,2.5,2.4,3.7c0.1-0.7,0-1.2-0.4-1.7c-1-1.2-1.8-2.5-2.6-3.8c-0.2-0.3-0.6-0.6-0.1-0.9
		c0.4-0.2,0.5,0.3,0.6,0.5c0.8,1.2,1.5,2.4,2.4,3.8c0.1-0.6,0.1-0.9-0.1-1.3c-1.1-2.2-3.6-3.8-3.2-6.8c0-0.3-0.6-0.6-0.1-0.9
		c0.5-0.2,0.5,0.4,0.7,0.7c0.8,1.5,1.6,2.9,2.6,4.4c0.3-1.2-0.6-1.8-0.9-2.5c-0.7-1.5-2.5-2.6-2-4.7c0-0.2-0.3-0.6,0.1-0.7
		c0.4-0.2,0.5,0.3,0.7,0.5c0.7,1.2,1.5,2.5,2.3,3.9c0.2-0.8-0.1-1.1-0.3-1.5c-0.8-1.2-1.6-2.5-2.3-3.7c-0.2-0.3-0.6-0.6-0.1-0.9
		c0.5-0.3,0.6,0.3,0.7,0.6c0.7,1.2,1.2,2.4,2.2,3.3c-0.7-2.2-2.2-4-2.9-6.2c1.3,1.2,1.8,3,2.9,4.4c0.2-0.6-0.1-1.1-0.4-1.6
		c-0.8-1.4-1.6-2.7-2.4-4.1c-0.1-0.2-0.5-0.5-0.2-0.7c0.6-0.5,0.2-0.8,0-1.2c-0.1-0.3-0.4-0.7,0-0.9c0.5-0.2,0.6,0.3,0.7,0.6
		c0.7,1.3,1.3,2.6,2.2,3.8c0.3-0.6-0.1-0.9-0.3-1.3c-0.8-1.3-1.6-2.6-2.3-4c-0.2-0.4-1-0.9-0.3-1.3c0.5-0.3,0.5,0.6,0.9,0.9
		c0,0,0.1,0,0.3,0.1c-0.3-0.6-0.5-1-0.7-1.5c-0.2-0.4-0.7-0.9-0.5-1.3c0.3-1.1,0.4-2.2-0.2-3.2c-0.1-0.1-0.1-0.3,0.1-0.4
		c0.2-0.1,0.4,0,0.5,0.2c0.2,0.4,0.4,0.9,0.6,1.3c0.7,1.2,1.1,2.5,2.1,3.6c-0.8-2.5-2.4-4.7-3.1-7.2c0.1-0.1,0.2-0.1,0.4-0.2
		c0.9,1.8,1.8,3.6,2.7,5.6c0.2-0.8-0.1-1.3-0.3-1.8c-0.7-1.5-1.4-3.1-2.1-4.6c-0.2-0.5-0.3-0.9,0.5-1c0.2,1.5,1.2,2.8,1.8,4.1
		c-0.2-1.5-0.9-2.8-1.9-4.1c-0.8-0.6-1.5-1.2-2.5-2c-0.1,2.5,0.1,4.8,0.2,7.1c0.1,4.5,0,9-0.1,13.5c-0.2,7.2,0.1,14.3,0.1,21.5
		c0,9.9,0,19.8,0,29.8c-0.2,0-0.5,0-0.7,0c0-10.5-0.4-21.1-0.7-31.6c-0.2-7.1-0.3-14.2,0.1-21.2c0.1-1.5,0-2.9,0-4.5
		c-43.5,12.3-87.4,22.3-132.7,26.2c0.5,1.7,0.9,3.2,1.3,4.6c0.8,2.9,1.9,5.8,2.5,8.8c0.4,2.1-0.5,3.2-2.6,3.2
		c-2.9,0.1-5.8,0.1-8.6-0.3c-1.9-0.3-3.3-1-3.8-3.2c-0.7-3-1.4-5.9-2-8.9c-0.2-0.7-0.4-1.1-1.1-0.8c-0.8,0.3-1.7,0.3-2.5,0.5
		c-6.4,1.4-12.8,2.9-19,4.9c-8.8,2.8-17.4,6-26.4,8.1c-9.8,2.4-19.7,4.5-29.8,5.9c-6.2,0.8-12.5,1-18.7,1.2
		c-1.8,0.1-2.4,1.1-1.5,2.7c0.8,1.4,1.5,2.8,2.3,4.1c-0.5,0-1,0-1.5,0c-0.8-1.3-1.7-2.6-2.3-4c-0.7-1.7,0.3-3.7,1.7-3.8
		c3.5-0.1,7-0.3,10.4-0.5c5.8-0.3,11.5-1.1,17.1-2.1c9.6-1.5,18.9-4,28.2-6.6c6.5-1.8,12.8-4.3,19.2-6.2c7.3-2.2,14.8-3.9,22.3-5.1
		c0.8-0.1,1-0.4,0.7-1.2c-1.7-6.3-3.8-12.5-5.2-18.8c-0.2-1-0.8-0.6-1.3-0.6c-2.5,0.4-5,0.8-7.6,1.1c-3.2,0.4-6.2,0.5-9.3-0.9
		c-4.4-2.1-8.8-4.3-13.4-6c-0.6-0.2-1.5-0.1-1.8-0.4c-0.8-0.7-1.7-0.9-2.6-1.3c-9.4-4.4-19-8.1-28.9-11.4c-0.3-0.1-0.8-0.3-1-0.2
		c-2.5,1-5.2,0.9-7.9,1.3c-3.2,0.4-6.5,0.6-9.7,1.2c-3.2,0.5-6.3,1.4-9.5,1.4c-1.5,0-2.4,0.4-3,1.6c-1.2,2.3-3.2,2.5-5.4,1.9
		c-0.2,0-0.4-0.1-0.6-0.1c-1.2-0.1-2.1-0.7-2.5-1.9c-0.8,0.7-1.7,0.9-2.7,1.1c-8.6,2-17.3,3.2-25.9,4.9c-3.5,0.7-6.9,1.3-10.4,2
		c0-0.4,0-0.8,0-1.2c4-0.7,8-1.4,11.9-2.2c8.2-1.6,16.5-2.7,24.6-4.4c1.6-0.3,2.9-1,3.7-2.7c2.1-4.6,5.2-8.5,7.5-13
		c0.4-0.9,0.3-1.1-0.5-1.4c-6.4-2.3-13-4.4-19.3-7.1c-1.7-0.7-3.4-1.5-5.1-2.3c-1.3-0.6-1.8-1.6-1.9-3c-0.1-8.8-0.3-17.6-0.5-26.3
		c-0.2-7.6-0.7-15.3-0.8-22.9c-0.1-8.4-0.3-16.8,0.1-25.3c0.1-3.4,0.5-6.9,0.9-10.3c0.3-2.9,2.1-4,4.5-4.4c3.3-0.6,6.7-1,10.1-1.3
		c4.5-0.4,9-0.8,13.5-1.2c0.7-0.1,0.9-0.3,0.8-1c-0.6-4.7-1.2-9.4-1.8-14.1c-0.2-1.9-0.1-3.9,0.3-5.8c0.3-1.9,1.4-3.3,3.1-4.3
		c0.5-0.3,1-0.6,1.5-0.8c2.2-1.2,2.2-1.2,0.9-3.3c-0.6-0.9-1.2-1.8-1.9-2.7c-0.8-1-0.7-1.7,0.5-2.3c1.6-0.9,3.3-1.5,5.2-1.7
		c5.6-0.7,11.2-0.1,16.8,0.1c0.9,0,1.8,0.1,2.7,0.1c5.1,0.1,10.2,0.1,15.2,0.3c2.6,0.1,5.1,0.3,7.7,0.4c1.1,0.1,2.1-0.3,3-0.7
		c7.2-3.1,14-7,19.7-12.5c0.2-0.2,0.5-0.3,0.5-0.8c0.2-6.5-0.4-13-0.4-19.6c-0.1-7.3-0.2-14.6,0.1-21.8c0.2-5.3,0.3-10.7,0.3-16
		c0.2-12.4,0.6-24.7,0.4-37.1c-0.2-12.6-0.3-25.2-0.3-37.8c0-18,0.1-36,0.1-53.9c0-7.4-0.1-14.7-0.3-22.1
		c-0.2-7.4-0.8-14.8-1.1-22.2c-0.2-8.1-0.2-16.3,0.1-24.4c0.1-3.2,0.3-6.4-0.1-9.6c-0.1-1,0-2,1-2.7c0.3,0,0.7,0,1,0
		c-1,1.1-1.1,2.5-1,3.9c0.4,5.6,0.2,11.2,0.2,16.8c0,4.5-0.1,9,0.1,13.4c0.3,7.3,0.8,14.6,1.1,21.9c0.2,5,0.4,10,0.4,15
		c0.1,8.7,0.2,17.3,0.1,26c0,7.4-0.2,14.9-0.2,22.3c-0.1,14.4,0.1,28.9,0.2,43.3c0.1,17.2,0.1,34.5-0.4,51.7
		c-0.2,6.9-0.3,13.8-0.4,20.7c0,6.3,0,12.6,0.2,18.9c0.1,3,0.4,6-0.1,9c-0.2,1.1,0,2.3,0,3.6c1.1-0.9,1.9-1.8,3-2.3
		c0.7-0.3,0.9-0.8,0.9-1.5c0.1-3.4-0.5-6.7-0.5-10.1c-0.1-5.8,0.3-11.6,0.4-17.4c0.2-11.8-0.2-23.5-0.2-35.3c0-2.7-0.1-5.4-0.1-8.2
		c-0.2-8.6,0-17.2-0.2-25.9c-0.2-9.2,0-18.5,0-27.7c0.1-16.5-0.3-33,0.2-49.4c0.1-4.8,0.7-9.7,0.6-14.5c0-12.5-0.2-25.1-0.5-37.6
		c-0.2-10.7,0.6-21.4,0.5-32c0-0.9,0-1.7,0-2.6c0-0.4,0.2-0.9,0.6-0.7c1,0.3,2-0.1,2.9,0c4.5,0.8,9.1,1.4,13.6,2.5
		c10.1,2.6,20.1,5.1,30.2,7.5c6.5,1.6,13.1,2.7,19.5,4.5c14.2,4.1,28.7,7.3,43.1,10.8c0.4,0.1,1,0.6,1.2-0.2
		c0.2-0.6-0.1-1.1-0.8-1.3c-4.1-1.1-8.1-2.5-12.3-3.4c-10.1-2.2-20.2-4.7-30.1-7.6c-3.8-1.1-7.6-2.7-11.4-3.8
		C175,7.2,165,4.8,155.1,2.1c-3.2-0.9-6.4-1.5-9.5-2.7c1.1,0,2.3,0,3.4,0c0.1,0.1,0.2,0.2,0.4,0.2c5.7,1.6,11.4,3.1,17.1,4.7
		c7.6,2.1,15.3,3.9,22.8,6.3c11.2,3.6,22.5,6.6,34,9.1c5,1.1,9.9,2.4,14.7,4c0.9,0.3,1.3,0.2,1.2-0.9c-0.1-4.6-0.1-9.2,0-13.8
		c0-3.2-0.3-6.4,0.1-9.6c0.3,0,0.7,0,1,0c0,9.3,0.1,18.6,0.1,27.9c0,9-0.1,18.1-0.1,27.1c0,1.9-0.1,1.9,1.9,2c0.8,0.1,1.2-0.2,1.2-1
		c0-3.5,0-6.9,0-10.4c-0.1-14.8-0.2-29.7-0.4-44.5c0-0.4,0-0.7,0.1-1.1c0.3,0,0.7,0,1,0c0,2-0.1,4.1-0.1,6.1
		c0.1,6.1,0.2,12.3,0.2,18.4c0,1.2,0.4,1.6,1.5,1.8c5.9,1.3,11.7,2.6,17.5,4.2c4.5,1.2,8.8,2.9,13.3,4.1c8.7,2.3,17.5,4.3,26.2,6.4
		c6.7,1.6,13.5,3.1,20.2,5c1.1,0.3,1.5,0.8,1.7,2c0.4,2.4,1.4,4.7,2.1,7.1c0.8,2.5,1.5,5,2.2,7.5c0.1,0.2,0.1,0.4-0.3,0.7
		c-1.7-4.1-2.5-8.5-4.1-12.7c-0.5,3-0.5,5.7,0.7,8.5c1.2,2.7,2.2,5.5,3.2,8.2c0.1,0.3,0.5,0.6,0.1,0.8c-0.4,0.2-0.5-0.3-0.6-0.6
		c-1.1-2.7-2.2-5.4-3.3-8.2c-0.1-0.3-0.2-0.6-0.3-0.8c-1.2,5.1,0.8,9.4,3,13.8c-0.8-0.2-1-0.5-1.9-2.6c-0.4-1.1-0.9-2.1-1.4-3.2
		c-0.3,4.2,2,7.7,2.9,11.5c-1.5-1.8-1.8-4.1-2.8-6.2c-0.5,1.9-0.2,4.3,0.9,7.6c0.8,2.4,1.6,4.8,2.3,7.2c-0.1,0-0.3,0.1-0.4,0.1
		c-0.9-2.6-1.9-5.3-2.8-7.9c-0.1,0-0.2,0.1-0.3,0.1c0.2,3.4,1.7,6.5,3,9.9c-1.1-0.7-1.3-1.8-1.7-2.7c-0.4-0.9-0.7-1.9-1.1-2.8
		c0,2.2-0.4,4.4,0.7,6.6c0.9,1.7,1.3,3.6,1.7,5.5c-1.3-1.5-1.4-3.6-2.6-5.5c0,1.4-0.1,2.5,0.5,3.7c0.7,1.4,1.3,2.9,2,4.4
		c0.1,0.2,0.4,0.5,0,0.7c-0.3,0.1-0.4-0.3-0.5-0.5c-0.6-1.2-1.1-2.3-1.8-3.5c-0.1,1.7-0.2,3.4,0.6,5c1,2,1.8,4.1,2.7,6.1
		c0.1,0.2,0.5,0.5,0,0.7c-0.3,0.1-0.4-0.2-0.6-0.5c-0.7-1.6-1.4-3.2-2.2-4.7c-0.2-0.4-0.3-0.7-0.7-1.3c0,3.4,0,6.5,0,9.6
		c0,0.4,0.3,0.8,0.4,1.1c0.9,1.9,1.7,3.8,2.3,5.7c0.1,0.2,0.2,0.4-0.2,0.8c-1-1.6-1.3-3.6-2.5-5.1c0,3.6,2.7,6.1,3.7,9.3
		c-0.9-0.3-0.9-0.3-1.9-2.4c-0.5-0.9-1-1.8-1.6-2.7c-0.1,1.7-0.3,3.3,0.5,4.9c1,1.9,1.7,3.8,2.4,5.8c0.1,0.3,0.3,0.6-0.1,1.1
		c-1-2.1-1.6-4.2-2.9-6.4c0,1.8-0.1,3.2,0.6,4.7c0.9,1.8,1.7,3.8,2.5,5.7c0.1,0.3,0.5,0.8,0.1,1c-0.5,0.3-0.6-0.4-0.8-0.7
		c-0.7-1.4-1.4-2.9-2.2-4.3c0.1,2.2-0.5,4.3,0.4,6.5c0.8,2,1.7,4,2.1,6.2c-1.2-1.5-1.5-3.4-2.5-5.2c0,1.8-0.2,3.4,0.5,4.9
		c0.7,1.5,1.3,3.1,1.9,4.7c0.1,0.3,0.5,0.7,0,0.9c-0.4,0.2-0.5-0.4-0.7-0.7c-0.6-1.2-1.1-2.4-1.7-3.9c-0.3,2.3,0,4.1,0.8,6
		c0.7,1.8,1.3,3.6,1.7,5.5c-1.3-1.6-1.6-3.5-2.6-5.5c0,1.5-0.1,2.8,0.4,4c0.9,2.2,1.4,4.6,2.7,6.6c0.1,0.2,0.3,0.3,0.1,0.5
		c-0.2,0.2-0.5,0.1-0.6-0.1c-0.4-0.6-0.7-1.2-1-1.8c-0.5-1.1-1-2.2-1.5-3.3c0.1,1.4-0.4,2.8,0.3,4.2c0.8,1.7,1.2,3.5,2.1,5.2
		c0.1,0.2,0.2,0.4-0.1,0.5c-0.3,0.1-0.4-0.1-0.6-0.3c-0.7-1.1-1.1-2.3-1.7-3.5c-0.4,1.6-0.2,4.2,0.3,5.5c0.7,1.7,1.4,3.4,1.9,5.2
		c-1.3-0.9-1.4-2.6-2.4-3.9c-0.5,3.1,1.6,5.4,2,8.4c-1.3-1.1-1.3-2.5-2-3.6c-1.1,3.2,1.5,5.4,2.1,8.1c-1.2-0.8-1.4-2.2-2.2-3.3
		c-0.3,1-0.3,1.9,0.2,2.8c0.8,1.6,1.5,3.3,2.2,5c0.1,0.4,0.5,0.7,0,1.2c-1.1-1.6-1.5-3.4-2.6-5.3c-0.2,1.3-0.1,2.2,0.4,3.2
		c0.8,1.5,1.5,3.2,2.2,4.7c0.1,0.2,0.4,0.4,0.1,0.6c-0.3,0.2-0.5-0.1-0.6-0.4c-0.6-1.2-1.2-2.4-1.9-3.9c-0.2,1.1-0.3,1.9,0.1,2.7
		c0.9,2.1,1.8,4.3,2.6,6.4c0.1,0.3,0.4,0.6,0,1.2c-1.2-1.8-1.8-3.8-2.9-5.9c0,1.8-0.1,3.4,0.6,4.9c0.9,1.9,1.6,4,2.4,5.9
		c0.1,0.2,0.3,0.5,0,0.6c-0.4,0.3-0.5-0.2-0.6-0.4c-0.8-1.7-1.5-3.4-2.3-5.1c-0.4,0.7-0.3,1.3,0,2c0.6,1.3,1.2,2.6,1.8,4
		c0.1,0.3,0.5,0.7,0.1,1.3c-1-1.1-1.2-2.5-2.1-3.8c-0.1,1.3-0.1,2.4,0.4,3.4c0.7,1.5,1.3,3,1.9,4.6c0.1,0.2,0.3,0.4,0,0.6
		c-0.3,0.2-0.4-0.1-0.5-0.3c-0.6-1.2-1.1-2.4-1.8-3.7c-0.3,0.8-0.1,1.4,0.2,2c0.8,1.7,1.5,3.3,2.3,5c0.1,0.3,0.6,0.6,0.1,0.9
		c-0.5,0.2-0.6-0.3-0.7-0.6c-0.6-1.1-1.2-2.3-1.9-3.7c-0.1,2-0.3,3.6,0.5,5.2c0.8,1.7,1.4,3.5,2.2,5.3c0.1,0.2,0.4,0.4,0.1,0.6
		c-0.3,0.2-0.5-0.1-0.6-0.3c-0.6-1.3-1.1-2.5-1.7-3.8c-0.2-0.3-0.1-0.8-0.7-1c0.1,1.3-0.2,2.6,0.6,3.9c0.9,1.5,1.4,3.2,2.2,4.7
		c0.1,0.3,0.3,0.6,0,0.7c-0.3,0.1-0.4-0.2-0.5-0.4c-0.7-1.4-1.4-2.7-2.2-4.4c0,1.8-0.3,3.2,0.6,4.6c0.6,0.9,1,1.9,1.4,2.9
		c0.2,0.4,0.7,1,0.2,1.2c-0.5,0.2-0.6-0.6-0.8-1c-0.5-0.9-1-1.8-1.6-2.9c-0.3,1-0.1,1.6,0.2,2.3c0.9,1.8,1.8,3.6,2.6,5.3
		c0.2,0.3,0.4,0.7,0.3,1.4c-1.4-1.8-2-3.7-3.1-5.5c-0.3,0.9,0,1.5,0.4,2.1c0.9,1.6,1.8,3.2,2.6,4.8c0.1,0.2,0.5,0.5,0.1,0.7
		c-0.4,0.2-0.5-0.2-0.6-0.4c-0.8-1.4-1.6-2.8-2.4-4.1c-0.2,1.2-0.2,2.3,0.3,3.4c0.9,1.8,1.6,3.7,2.4,5.6c0.1,0.2,0.5,0.6,0.1,0.8
		c-0.4,0.2-0.5-0.3-0.6-0.5c-0.7-1.5-1.4-3-2.2-4.5c-0.1,1.2-0.4,2.4,0.4,3.5c0.6,0.9,1.1,1.9,1.7,2.8c0.2,0.2,0.4,0.5,0.1,0.8
		c-0.3,0.2-0.5-0.1-0.7-0.3c-0.5-0.8-1-1.5-1.6-2.4c-0.4,1.1-0.4,2,0.2,2.9c0.8,1.3,1.6,2.6,2.3,3.9c0.2,0.3,0.6,0.6,0.1,1.3
		c-1-1.3-1.7-2.8-2.8-4.2c-0.2,1-0.1,1.9,0.4,2.7c0.8,1.3,1.6,2.7,2.4,4.1c0.1,0.2,0.4,0.4,0.1,0.6c-0.2,0.2-0.4,0-0.6-0.3
		c-0.7-1.1-1.4-2.2-2.2-3.3c0,1.6-0.5,3.1,0.5,4.6c0.9,1.3,1.5,2.7,2.1,4.2c-1.2-0.8-1.6-2.3-2.7-3.4c-0.2,1.3-0.1,2.3,0.7,3.3
		c0.7,0.8,1.3,1.9,1.9,2.8c0.2,0.2,0.3,0.5,0,0.9c-1-1-1.5-2.4-2.6-3.4c-0.6,3.1,2.1,5.1,2.5,7.9c-1.1-1.1-1.6-2.7-2.7-3.9
		c0,1.6-0.5,3.3,0.2,4.9c0.7,1.5,1.7,2.9,2.4,4.4c-1.2-0.6-1.5-1.9-2.6-2.9c-0.1,1.3-0.1,2.3,0.5,3.3c0.5,0.8,1.1,1.5,1.6,2.3
		c0.2,0.3,0.8,0.8,0.4,1.1c-0.4,0.3-0.7-0.4-1-0.7c-0.4-0.4-0.7-0.9-1.1-1.4c-0.2,1.2,0.2,2.4,1.4,3.5c0.2,0.2,0.5,0.2,0.3,0.5
		c-0.2,0.2-0.5,0.2-0.6,0c-0.3-0.4-0.7-0.2-1-0.1c-1.3,0.5-2.7,0.3-4.1,0.4c-5.1,0.3-10.3,0.7-15.4,0.8c-6.5,0.2-13,0.4-19.5,0.8
		c-4.3,0.3-8.6,0.9-12.9,1.3c-2.5,0.2-5,0.2-7.4,0.4c-7.2,0.6-14.4,0.4-21.6,0.5c-6.3,0.1-12.6,0.4-18.9,0.7
		c-6.4,0.3-12.8,0.9-19.2,1c-4.5,0.1-9.1,0.2-13.6,0.5c-7.5,0.4-14.9,0.8-22.4,0.7c-5.4,0-10.7-0.6-16.1-0.5c-0.9,0-1.7-0.3-2.7-0.4
		c1,1.4,2,2.2,4,2.2c9.4-0.2,18.8-0.2,28.2-0.4c3.6-0.1,7.1-0.4,10.7-0.6c1.6-0.1,3.2,0,4.6,0.9c1.1,0.7,2.2,0.1,3.3,0
		c3.9-0.3,7.8-0.3,11.7-0.5c6.8-0.3,13.6-0.6,20.3-0.9c4.3-0.2,8.5-0.2,12.8-0.4c6.1-0.2,12.1-0.8,18.2-1.5
		c3.7-0.4,7.4-0.6,11.1-0.9c9.4-0.7,18.9-0.8,28.4-1.3c3.1-0.1,6.3,0,9.4-0.6c0.2,0,0.5,0,0.6-0.1c1-1.5,2.6-0.9,3.9-0.9
		c6.7,0.2,13.3-0.4,19.9-0.7c3-0.1,6-0.2,9-0.3c4-0.1,7.9-0.5,11.9-0.9c1.2-0.1,2.5-0.3,3.8-0.3c0.8,0,1-0.3,1-1.1
		c0-1.3-0.1-2.5-0.3-3.8c-0.5-3,1.3-5.2,4.3-4.6c5.1,0.9,10.2,0.9,15.3,1.4c4.4,0.4,8.7,0.7,13.1,0.9c0.3,0,0.6-0.1,0.9-0.2
		c0.7-0.3,1.3-0.6,2-0.8c1.7-0.6,2.7-0.3,3.7,1.3c0.3,0.4,0.6,0.7,1.1,0.8c3.6,0.6,7.1,1.1,10.7,1.8c2.8,0.5,5.7,0.7,8.6,0.8
		c1.6,0.1,3.2-0.4,4.8-0.7c3.2-0.5,6.4-0.8,9.6-1.1c5.6-0.6,11.3-0.9,16.9-2.1c0.6-0.1,1.3-0.3,1.9-0.3c0.8-0.1,1.5,0.2,1.9,1
		c0.7,1.4,1,2.9,0.6,4.5c-1.1,4-2.2,8-2.9,12c-0.5,3-0.2,5.9,0.2,8.9c0.3,2.8,0.8,5.6,1.1,8.4c0.1,0.6,0.3,0.8,0.9,0.8
		c2.5,0.3,5.1,0.6,7.6,0.9c1.9,0.2,3.7,0.5,5.6,0.5c1,0,1.2-0.2,1.2-1.2c0.3-10.7,0.2-21.3,0-32c-0.1-6.1-0.1-12.1-0.4-18.2
		c-0.6-12.3-0.8-24.5-1-36.8c-0.1-6.1-0.3-12.2-0.5-18.3c-0.6-17.3-0.4-34.6-0.4-51.9c0-9.2-0.1-18.3,0.2-27.5
		c0.5-15.9,0.3-31.8,0.5-47.7c0.1-6.3,0.4-12.5,0.5-18.8c0-0.8-0.2-1.3-1-1.4c-3-0.4-5.7-1.7-8.5-2.7c-11.1-4.1-22.1-8.3-33.3-12.1
		c-1-0.3-1.3-0.3-1.3,0.9c0.3,13.3,0,26.6,0.1,39.9c0,1.1,0.1,2,1,2.9c1.1,1.2,2,2.7,1.6,4.5c-0.2,0.9-0.7,1.6-1.3,2.3
		c-1.2,1.4-1.1,1.7,0.6,2.2c2.1,0.6,4.2,1,6.3,1.6c7.9,2.4,14.5,6.8,18.8,14c2.3,4,3.7,8.5,4.6,13.1c0.3,1.4,0.2,2.9,0,4.4
		c-0.1,1.6-1.1,2.6-2.7,2.9c-2.6,0.5-5.3,0.9-7.9,1.4c-6.1,1.1-12.3,1.4-18.5,1.4c-4.6,0-9.3,0.3-13.9,0.2
		c-5.2-0.1-10.5-0.5-15.7-1.3c-2.4-0.3-4.9-0.4-7.2-0.9c-2.2-0.5-2.5-1.2-2.7-3.5c-0.2-4,1.4-7.5,3.2-10.9
		c2.9-5.5,6.3-10.7,11.3-14.5c3.8-2.9,7.8-5.4,12.6-6.4c1.7-0.4,3.4-0.7,5-1.2c1-0.3,1-0.8,0.5-1.5c-0.1-0.2-0.3-0.4-0.5-0.6
		c-2-2.2-2-4.2-0.1-6.4c0.8-0.9,1.1-1.8,1.1-3c-0.1-13.7-0.1-27.3-0.1-41c0-0.3,0-0.6,0-0.9c0.2-1.2-0.3-1.7-1.4-2
		c-19.4-6.4-39-12.2-58.7-17.8C347.5,7.9,333.1,4,318.8-0.1c-0.4-0.1-0.8-0.1-1.1-0.4c1.9,0,3.7,0,5.6,0c0.2,0.1,0.4,0.2,0.7,0.3
		c32.4,8.9,64.8,18.2,96.7,28.9c1,0.3,1.1,0.1,1.1-0.8c0.1-8.5-0.1-17-0.2-25.5c0-0.9,0.1-1.9-0.1-2.8c0.3,0,0.7,0,1,0
		c0,0.4-0.1,0.7-0.1,1.1c0.2,13.2,0.4,26.4,0.4,39.7c0,10.6,0,21.2-0.1,31.9c0,1.3,0.5,1.3,1.5,1.4c1.3,0.1,1-0.6,1-1.3
		c-0.1-14.2-0.1-28.3-0.2-42.5c-0.1-10-0.2-20.1-0.3-30.1c0.2,0,0.5,0,0.7,0c0,0.6-0.1,1.1-0.1,1.7c0.1,9.4,0.3,18.8,0.4,28.2
		c0,0.8,0.4,1.1,1,1.4c7.2,2.5,14.2,5.2,21.3,7.7c7.1,2.5,13.9,6.1,21.4,7.6c1.3,0.3,2.4,0.5,3.6,0.1c3.9-1.1,7.9-2.2,11.8-3.3
		c5.2-1.4,10.3-2.8,15.5-4.1C500.4,39.3,500.4,39.8,500.4,40.3z"/>
	<path class="st3" d="M419.9,380.7c-0.6,0-0.9-0.7-1.5-0.5c0.2,2.7,0.5,3.3,1.4,3.5c-0.2-0.6-0.3-1.2-0.5-1.7
		C419.2,381.4,419.2,380.9,419.9,380.7c0,0.8,0.2,1.5,0.4,2.2c0.4,1.6,0.7,1.9,2.3,2.4c-0.5-2.4-0.5-2.4-1.1-2.9
		c0.2,0.7,0.3,1.4,0.6,2.2c-0.8-0.4-0.9-1-1-1.6C420.8,382.2,420.7,381.3,419.9,380.7z"/>
	<path class="st3" d="M446.5,385.9c0-1.9-0.1-3.8,0-5.7c0.1-1.4,0.1-1.4-0.7-2.1c0,0.2,0,0.3,0,0.5c-0.1,2.2,0.2,4.4-0.2,6.7
		C445.3,385.9,445.9,386.1,446.5,385.9c0.6,0.9,1.7,1.2,2.5,1.9c0.1,0.1,0.5-0.1,0.7-0.2c0.2-0.2,0-0.4-0.1-0.5
		c-0.5-1.2-0.8-2.6-0.6-3.9c0.1-0.7-0.2-0.9-0.5-1.5c-0.7,1.8,0.2,3.3-0.2,4.9c-1.1-2.1-0.2-4.5-0.9-6.7c-0.2,1.7-0.3,3.5-0.4,5.2
		C446.9,385.4,447.2,386,446.5,385.9z"/>
	<path class="st3" d="M47.6,434.4c0.1,0,0.3,0.1,0.3,0c2.8-3.5,5.2-7.3,7.7-11c0.2-0.4,0-0.5-0.3-0.6c-1.6-0.5-3-1.4-4.8-1.2
		c-0.3,0-0.8,0.1-1-0.2c-0.2-0.3-0.3-0.3-0.5,0c-0.2,0.3-0.1,0.4,0.3,0.5c0.7,0.1,1.3,0.3,2,0.4c0.9,0.2,1.7,0.5,1.9,1.5
		c-1.8,0-3.7-0.2-5.5,0.3c1.4,0.2,2.8,0.2,4.2,0.2c0.3,0,0.8-0.1,0.8,0.5c0,0.6-0.5,0.4-0.8,0.5c-1.6,0.2-3.1,0.3-4.7,0.5
		c-0.4,0-0.8,0.1-0.7,0.7c1.9,0.1,3.8-0.5,5.7-0.2c-2,0.5-4.1,0.7-6.2,0.9c0.9,0.1,1.8,0.2,2.6,0c0.9-0.2,1.7-0.2,2.6,0.1
		c-1.7,0.4-3.4,0.6-5.2,0.7c-0.5,0-1-0.1-1,0.7c2,0,3.9-0.6,5.9-0.2c-1.8,0.5-3.7,0.8-5.5,0.7c-0.8,0-1.2,0.2-1.4,1
		c1.8,0.3,3.6-0.7,5.4-0.3c-1.1,0.3-2.1,0.5-3.2,0.8c-1,0.2-2.2,0-3.1,0.9c1.7,0.2,3.3-0.3,4.9-0.5c0.3,0,0.6-0.2,0.6,0.2
		c0,0.3-0.3,0.3-0.5,0.4c-1.6,0.2-3.3,0.5-4.9,0.7c-0.6,0.1-1,0.2-1.1,1c1.6-0.4,3.2-0.7,4.8-1.1c0.3-0.1,0.6-0.2,0.7,0.1
		c0.1,0.3-0.3,0.4-0.6,0.5c-1.7,0.5-3.3,1-5,1.4c-0.5,0.1-0.7,0.4-0.8,0.9c1.9-0.4,3.7-0.7,5.5-1.1
		C47.3,434.1,47.3,434.1,47.6,434.4c-0.1,0.1-0.2,0.3-0.4,0.3c-1.8,0.4-3.6,0.8-5.4,1c-0.7,0.1-0.9,0.6-1,1
		c-0.1,0.5,0.5,0.7,0.9,0.8c0.6,0.1,1.1,0.2,1.7,0.3C45.3,438,47.2,436.5,47.6,434.4z"/>
	<path class="st2" d="M415.3,343.4c1.7,0.2,0.7,1.7,1.2,2.4c0.7-0.3,1.4-0.3,1.9-1c0.2-0.4,0.9-0.5,1.3-0.2c0.5,0.4,0.4,1,0.5,1.5
		c0.1,0.2-0.2,0.3-0.4,0.2c-1.2-0.4-1.6,0.5-2.1,1.2c-0.3,0.5-0.5,1.1,0.5,0.8c0.4-0.1,0.6,0.1,0.7,0.5c0.1,0.5-0.3,0.4-0.6,0.5
		c-0.9,0.5-1.5-0.2-2-0.6c-0.5-0.4-0.1-1,0.3-1.5c0.1-0.1,0.2-0.2,0.3-0.4c-1.3,0.2-2.3,1.1-3.4,1.6c-0.2,0.1-0.6-0.2-0.6,0.3
		c0,0.4,0.3,0.5,0.6,0.7c0.7,0.2,1.3,0.5,1.8,1c0.3,0.3,0.5,0.2,0.9,0.1c0.2-0.1,0.6-0.5,0.8,0c0.2,0.4-0.4,0.4-0.6,0.6
		c-0.1,0.1-0.3,0.1-0.2,0.4c1.4,1,2.5,2.4,3,4.2c1.2-1.3,2.4-2.5,3.7-3.6c0.8-0.7,1.6-1.5,2-2.6l0,0c1.4-1.1,1.9-2.9,2.9-4.2
		c0.2-0.2,0.1-0.4-0.1-0.7c-0.7-1.1-1.8-1.6-2.9-2c-1.8-0.7-3.6-0.9-5.5-0.7C418,342.1,416.6,342.7,415.3,343.4
		c-0.5,1.4-2,2.1-2.4,3.7c2.8-0.6,2.8-0.6,2.4-3.2C415.4,343.7,415.3,343.5,415.3,343.4z"/>
	<path class="st2" d="M476.5,390.2c0,0.9-0.6,1-1.3,1.1c-2.9,0.7-5.8,1.5-8.7,2.3c0,0.1,0,0.2,0,0.3c3.8,0.6,7.5,1.2,11.4,1.9
		C477.5,393.8,477,392,476.5,390.2c-1.6-5.6-3.2-11.2-4.8-16.8c-0.2-0.5-0.3-0.9-1-0.7c-3.2,0.9-6.4,1.7-9.6,2.5
		c-0.5,0.1-0.8,0.4-0.8,1c0.1,1.1,0.1,2.3,0.1,3.4c0,0.9-0.1,1.9-0.2,2.8c0,0.3-0.2,0.7-0.6,0.8c-0.4,0.1-0.6-0.3-0.7-0.5
		c-0.3-0.6-0.7-1-1.2-1.3c-1.8-1.2-3.9-1.2-5.9-1.4c0.9,0.5,1.8,0.9,2.2,1.9c1,2.3,1,4.8,1.5,7.2c0.1,0.7-0.2,0.9-0.9,0.5
		c-0.2-0.1-0.5-0.3-0.7-0.5c-1.5-1.1-3-1.3-4.5-0.1c-0.9,0.7-0.3,1.5-0.3,2.2c0,0.6,0.4,0.6,0.8,0.6c3.3,0.1,6.6,0.8,9.9,1.1
		c1.6,0.2,3.3,0.8,4.9,0.4C468.6,392.3,472.6,391.2,476.5,390.2z"/>
	<path class="st2" d="M405.7,111.6c1.8-0.1,3.6-0.2,5.5-0.3c4.1-0.2,8.2-0.3,12.3-0.3c0.6,0,1-0.1,1-0.8c-0.1-6.9,0.3-13.9,0-20.8
		c-0.1-1.1-0.3-2.2-0.4-3.2c-0.1-0.7-0.4-0.8-0.9-0.5c-1.3,0.5-2.5,1.1-3.8,1.6c-4.1,1.7-7.8,4-9.8,8.3c-1.3,2.9-2.3,5.8-2.9,8.9
		C406.1,106.8,405.3,109.1,405.7,111.6c-0.6-0.3-0.8-0.8-0.7-1.5c0.5-4.6,1.3-9.2,3.1-13.5c1.1-2.8,2.5-5.3,5.1-7.1
		c0.8-0.5,1.6-1.1,2.7-1.8c-1.3,0.2-2.2,0.5-3.1,0.8c-11.5,4.6-17.8,14-22.7,24.6c-0.3,0.6-0.1,0.7,0.6,0.6c1.3-0.3,2.6-0.5,3.8-0.6
		C398.2,112.6,402,112.1,405.7,111.6z"/>
	<path class="st2" d="M410.9,388.3c-0.4,0.8-0.8,2-0.2,2.4c0.8,0.5,0.9,1.2,1.2,1.8c0.9,1.5,1.6,3.1,2.6,4.5
		c0.1,0.2,0.5,0.4,0.2,0.7c-0.4,0.3-0.6-0.2-0.7-0.4c-1-1.6-2-3.2-3-4.9c-0.2-0.3-0.2-0.7-0.7-0.8c-0.1,1.6-0.2,3.3-0.3,4.9
		c-0.2,3.2-0.5,6.3-0.8,9.5c-0.2,1.7,0.4,2.4,2.1,2.3c-0.4-0.5-0.7-1-1.1-1.5c-0.2-0.4-0.6-0.9-0.1-1.2c0.5-0.3,0.7,0.3,0.9,0.7
		c0.1,0.2,0.2,0.4,0.3,0.6c0.7,1,1.3,2,2.8,2.2c6.9,0.9,13.9,1.6,20.9,1.3c4.2-0.2,8.3-0.8,12.4-1.6c0.7-0.1,0.9-0.5,0.8-1.2
		c-0.1-0.9-0.3-1.8-0.3-2.8c0-5,0-10,0-15c0-0.8-0.2-1.3-0.9-1.8c-2-1.4-4.2-2.4-6.5-3.1c-0.2,3.4-0.2,6.8,0.6,10.1
		c0.1,0.4,0.3,0.9-0.1,1.3c-0.4,0.3-0.6-0.1-0.9-0.4c-2.4-2.4-4.7-4.9-8.1-6.1c-0.7-0.3-1.3-0.8-1.8-1.4c-0.3-0.4-0.7-0.7-1.1-0.9
		c-1.5-0.6-2.3-1.7-2.8-3.2c-0.1-0.3,0-0.7-0.5-0.5c-0.4,0.1-0.8,0.1-0.7,0.7c0,0.2,0,0.4,0,0.6c0,0.4,0.7,0.9-0.2,1.2
		c-0.5,0.1-0.9,0.5-1.5,0.3c-0.5-0.2-1-0.4-1.4-0.6c-2.1-1-4.2-2.3-6.5-3c-1.5-0.5-3.1-0.7-3.6-2.5
		C410.4,383.1,410.7,385.7,410.9,388.3L410.9,388.3z"/>
	<path class="st2" d="M169.2,304.6c0-0.6,0.3-0.9,0.8-1.2c1.4-0.8,2.8-1.3,4.4-1.4c1.5-0.1,2.8,0.5,4.1,0.7c3,0.6,5.9-0.2,8.8-0.6
		c2.8-0.4,5.6-0.9,8.5-0.4c1.5,0.3,3.1,0.6,4.8,0.5c-0.4-0.6-0.3-1.1-0.4-1.7c-0.1-1.5-0.2-3-0.5-4.5c-0.5-2.4-1-4.8-1.3-7.2
		c-0.2-1.9-0.6-3.7-1.1-5.5c-0.6-2-1.9-2.8-3.9-2.6c-3.7,0.2-7.4,0.6-11.1,0.6c-8.6,0.1-17.2,0.2-25.9-0.1c-1.4-0.1-2.9,0-4.5,0
		c1.5,1.9,3,3.5,4.2,5.4c2.7,4.4,5.7,8.7,9.2,12.6C166.8,300.9,168.1,302.6,169.2,304.6c1,1.3,2.1,2.5,3.1,3.8
		c3.2,4.2,5.1,9.1,7.5,13.8c3.5,7,6.7,14.2,10.7,20.9c1.7,2.9,2.8,6.1,5,8.9c4,5.2,9.3,7.7,15.1,9.8c0.4,0.1,0.8,0.1,1.2,0.2
		c0.6,0.2,0.8-0.1,0.8-0.6c0.1-0.8,0.2-1.5,1-2c3.9-2.4,8.1-3.9,12.6-4.5c3.6-0.5,7.3-0.4,10.9-0.9c6.5-0.9,12.7-2.5,18.4-5.8
		c0.4-0.2,0.7-0.4,0.4-0.8c-1.5-2.4-2.9-4.9-4.6-7.1c-0.6-0.7-1.5-1.4-2-2.2c-3.1-4.5-6.7-8.5-10-12.8c-2.8-3.7-5.1-7.7-7.8-11.5
		c-2.5-3.5-5.8-6.2-8.7-9.4c-0.4-0.5-1-0.5-1.6-0.4c-2,0.3-4,0.4-6.1,0.4c-1.5,0-3-0.4-4.5-0.3c-3.8,0.2-7.5-0.6-11.3-1
		c-4.2-0.5-8.3-1-12.5-0.1c-2.8,0.6-5.7,1.1-8.4,0.3c-3.2-1-6.2-0.9-9,1.1C169.4,304.5,169.3,304.5,169.2,304.6z"/>
	<path class="st2" d="M292.7,421.2c-0.4,1-1.3,1.1-2.2,1.3c-4.1,1.2-8.3,1.7-12.5,2.4c-10.3,1.7-20.4,3.7-30.6,5.8
		c-7.8,1.6-15.6,3.2-23.4,4.5c-7.2,1.2-14.5,2.3-21.7,3.9c-6.5,1.5-13,3.1-19.5,4.6c-8.2,1.8-16.4,3.4-24.7,4.6
		c-0.7,0.1-0.8,0.3-0.5,0.9c0.4,1.1,0.7,2.3,1.1,3.5c1.3,4.6,2.5,9.3,3.8,13.9c0.1,0.4-0.1,1.2,0.7,1c2.3-0.6,4.6-0.7,6.8-1
		c6.7-1,13.4-2.1,20.1-3c8.5-1.2,17.1-2.4,25.5-4c19-3.7,37.8-8.3,56.6-12.6c6.7-1.6,13.4-3,20-5.2c0.8-0.3,1.6-0.6,2.5-0.5
		c0.8,0.1,0.9-0.2,1-0.9c0.3-4.2,0.2-8.5,0.2-12.7c0-0.7-0.2-1.2-0.6-1.8C294.2,424.5,293.1,423.1,292.7,421.2
		c-0.5-0.7-0.7-1.5-0.7-2.3c-0.2-1.7-0.6-3.5-0.2-5c0.5-2.1,1.7-3.9,3.4-5.4c3.1-2.7,6.9-4.4,10.6-6.2c0.6-0.3,1.3-0.4,1.9-1
		c-0.4,0-0.6,0-0.7,0c-3.9,1.2-7.9,2.1-11.8,3.1c-3.9,1-7.7,2.3-11.7,3c-4.5,0.8-9.1,1.4-13.7,2.2c-7.8,1.4-15.5,3.2-23.2,4.5
		c-13.7,2.4-27.3,5.7-41,8c-5.1,0.9-10.3,1.9-15.4,2.8c-4.7,0.8-9.3,1.6-14,2.2c-4.6,0.7-9.1,1.3-13.7,1.9c-3.2,0.4-6.5,0.7-9.8,1.1
		c-3.7,0.4-7.4,0.8-11.1,1.1c-3.3,0.3-6.7,0.6-10,1.1c-0.3,0-0.6,0.2-0.7-0.2c-0.1-0.4,0.3-0.4,0.6-0.4c1.9-0.2,3.8-0.5,5.8-0.7
		c2.9-0.4,5.8-0.5,8.7-0.8c4.7-0.5,9.4-1,14.1-1.7c5.4-0.7,10.8-1.4,16.2-2.3c7.2-1.2,14.4-2.3,21.5-3.8c5.5-1.2,11.1-2,16.6-3.1
		c7-1.4,13.9-2.9,20.9-4.3c7-1.4,14.1-2.7,21.1-4.1c5.7-1.1,11.4-2.2,17.2-3c3.9-0.5,7.8-1,11.6-1.8c4.9-1.1,9.7-2.4,14.5-3.7
		c5.3-1.5,10.6-2.8,15.9-4c5.6-1.3,11.1-2.8,16.7-3.8c8.5-1.5,17-2.4,25.6-3.3c9-0.9,18-1.3,27-1.4c7.2-0.1,14.3,0.2,21.5,0.5
		c1,0,2.3,1,3-0.1c0.6-0.9,0.4-2.2,0.5-3.3c0.1-1,0.1-2,0.2-3.3c-1.8,1.7-3,3.4-4.2,5.2c-0.2,0.3-0.3,0.8-0.7,0.7
		c-0.4-0.1-0.5-0.5-0.6-0.9c-0.5-1.6-0.7-3.3-0.8-5c0-0.7-0.1-1.1-1-0.8c-0.7,0.2-1.5,0.3-2.3,0.4c-1,0.2-2,0.5-3.1,0.6
		c-3.7,0.5-7.5,1-11.2,1.5c-8.9,1.2-17.8,2.7-26.7,4.3c-8,1.5-15.9,2.7-24,3.5c-6.5,0.7-13,1.6-19.5,2.4c-4.9,0.6-9.7,1.4-14.4-1.1
		c-0.4,2.7-1.8,4.2-4.5,4.4c-1.8,0.2-3.5,0.5-5.3,0.7c-4.6,0.5-9.2,1.1-13.8,1.6c-4.8,0.6-9.6,1.5-14.4,2.3c-9,1.3-18,2.8-26.9,5
		c-7.3,1.9-14.6,3.4-22.1,4.3c-5.4,0.6-10.7,1.3-16.1,2c-10.7,1.4-21.4,3.7-32.1,4.9c-5.4,0.6-10.7,1.3-16.2,0.5
		c-4.6-0.7-9.1-1.6-13.5-3.2c-4.3-1.6-8.5-3.6-13-4.8c-0.8-0.2-1.7-1-2.2-0.6c-0.5,0.5-0.4,1.6-0.5,2.4c-0.5,2.8-1.1,5.6-2.2,8.3
		c-0.3,0.7-0.5,1.5-1.3,1.8c-2.4,0.9-4.5,2.4-7.1,3.2c0.9,0.4,1.9,0.8,2.9,1c4.6,0.7,9,1.8,13.3,3.7c2.2,0.9,3.6,2.4,4.4,4.6
		c0.7,1.7,0.9,3.4,1,5.2c0.2,3.3-0.2,6.5-1.8,9.6c1.9-0.2,3.6-0.3,5.3-0.6c7.5-1.1,14.9-2.4,22.4-3.5c9.6-1.4,19.1-3.3,28.4-5.7
		c12-3.2,24.2-5.6,36.4-7.6c10.4-1.7,20.7-3.8,31-6c7.1-1.5,14.2-2.9,21.4-4.1c5.4-0.9,10.8-1.7,16.2-2.9
		C291.8,421,292.3,421,292.7,421.2z"/>
	<path class="st2" d="M112.3,443.2c0.2-0.9-0.4-1.6-0.7-2.4c-1.2-2.8-2.5-5.6-3.7-8.5c-0.4,0.7-0.3,1.2-0.3,1.7c0,0.4-0.3,1,0.2,1.1
		c0.8,0.1,0.8,0.8,1,1.2C109.8,438.7,110.8,441,112.3,443.2c0.1,0.3,0.1,0.7,0.5,0.9c1.5,0.6,2.9,1.1,4.5,1.7
		c-1.9-5-3.7-9.8-5.4-14.7c-0.5-1.4-0.9-2.5-2.5-2.9c-0.4-0.1-1.2-0.3-1.1-0.9c0.1-0.7,0.8,0,1.1-0.4c0.1-0.1,0.3-0.1,0.5-0.1
		c2.1-0.7,4-1.9,6-2.9c1.4-0.7,2.1-1.6,2.5-3c2-6.5,2.6-13.3,2.8-20c0.1-4,0-8,0.2-12.1c0.1-3.4-0.1-6.8-0.3-10.2
		c-0.2-2.9-0.6-5.8-0.9-8.7c-0.2-2.5-0.4-5.1-0.7-7.6c-0.4-3.6-1.1-7.2-1.3-10.9c-0.1-3.6-0.8-7.2-2-10.6c-1-2.6-2.4-4.9-4.8-6.5
		c-0.1-0.1-0.1-0.1-0.2-0.2c-0.1-0.6-0.6-0.7-1.1-0.8c-3.9-0.7-7.8-1.2-11.6-2c-13.3-2.8-26.8-5.1-40.2-7.7
		c-7.1-1.4-14.3-2.8-21.4-4.1c-3.6-0.7-7.3-1-11-0.3c-2.7,0.5-3.3,1.2-3.8,3.8c-0.9,4.7-1.1,9.4-1.1,14.2
		c-0.2,10.5,0.1,21.1,0.6,31.6c0.4,8.6,0.7,17.3,0.8,26c0,4.2,0.1,8.3,0,12.5c-0.1,1.8,0.7,2.5,2.2,3.1c5.4,2.2,10.9,4.3,16.5,6.2
		c13.3,4.5,26.3,9.7,39.3,14.8c6.4,2.5,13,4.3,19.2,7.2c2,0.9,4,1.8,6,2.7c0.3,0.1,0.6,0.5,0.9,0.2c0.2-0.2,0.1-0.6,0-0.9
		c-0.2-0.8-0.1-1.5-0.1-2.3c0.3-5.4,0.7-10.7,0.8-16.1c0.2-6.1,0-12.3-0.2-18.4c-0.2-7.6,0-15.1-0.4-22.7
		c-0.3-6.8-0.4-13.6-0.8-20.3c-0.4-7.1,0.2-14.1,1.7-21c0.2-1,0.3-2,0.5-3c0.1-0.2,0.1-0.7,0.6-0.6c0.4,0.1,0.1,0.4,0.1,0.7
		c-0.2,1-0.3,1.9-0.5,2.9c-0.7,3.7-1.4,7.4-1.5,11.2c-0.2,4.7,0.1,9.4,0.4,14.1c0.4,7.1,0.5,14.3,0.8,21.4c0.2,5.4,0,10.7,0.2,16.1
		c0.3,7.5,0.5,15,0.1,22.4c-0.2,2.9-0.8,5.8,1.1,8.7c1.3,2,2,4.4,2.9,6.6c0.4,1.1,1,2.2,1.1,3.4
		C112.6,443.9,112.8,442.9,112.3,443.2z"/>
	<path class="st2" d="M128.9,263c1.1-0.2,2.2-0.6,3.3-0.6c1.2,0,1.8,0.5,1.9,1.6c0.1,2.4,1.5,3.8,3.2,5c2.4,1.7,4.9,3.3,7.2,5.2
		c0.2,0.2,0.4,0.4,0.7,0.4c2.9-0.3,5.8-0.1,8.6-0.2c7.1-0.1,14.2-0.5,21.3-0.9c6-0.3,11.9-0.5,17.9-0.7c6.4-0.2,12.8-0.4,19.1-0.5
		c9.7-0.1,19.3-0.3,29-1c5.5-0.4,10.9-0.8,16.4-1.2c6.7-0.5,13.5-0.9,20.2-1c13.5-0.1,27.1,0.2,40.6-1c0.6-0.1,0.8-0.2,0.8-0.8
		c0.1-2.8-0.1-5.6-0.2-8.4c-0.1-6-0.1-12,0-17.9c0.1-12.2,0.2-24.5,0.2-36.7c0-8.5,0.4-16.9,0.7-25.4c0.1-3.7,0.1-7.5,0.2-11.2
		c0.3-7,0.5-14.1,0.5-21.1c0-14.2,0.2-28.4-0.1-42.6c-0.2-10.9-0.1-21.9,0.1-32.8c0.1-3.9-0.1-7.9,0.1-11.8
		c0.2-3.4,0.1-6.8,0.2-10.2c0-0.6,0-1-0.7-1.2c-4.4-0.9-8.7-2.1-13.2-2.9c-9.3-1.7-18.5-3.7-27.5-6.5c-11.2-3.5-22.6-6.4-34-9.2
		c-1.4-0.3-1.4-0.3-1.4,1.1c0,8,0,16,0,24c0,2.1,0.2,3.9,1.7,5.7c2.3,2.8,2,4.9-0.3,7.6c-0.1,0.2-0.3,0.3-0.4,0.5
		c-0.6,0.9-0.4,1.5,0.7,1.7c2.6,0.7,5.1,1.2,7.7,2c12.2,3.7,21.3,10.7,25.7,23.1c1.6,4.5,3.1,9.1,2.8,14c-0.2,2.2-1,3.4-3.1,4
		c-1.6,0.5-3.3,0.7-4.9,0.9c-5.6,0.9-11.1,1.8-16.8,2.1c-8.2,0.4-16.5,0.4-24.8,0.6c-8.6,0.2-17.1-1.1-25.6-2
		c-1.6-0.2-3.3-0.3-4.9-0.9c-1.5-0.6-2-1.2-1.9-2.9c0-1.4,0.1-2.8,0.2-4.1c0-0.6-0.2-1.2,0-1.9c3.3-8.5,7.6-16.5,14.4-22.9
		c4.9-4.6,10.4-8.1,17-9.9c2.1-0.6,4.3-0.8,6.3-1.5c1.6-0.5,1.8-0.9,0.6-2.3c-2.6-3-2.7-5.1,0-8.2c0.5-0.6,1-1.2,1-2.1
		c0-9.6,0-19.2,0-28.8c0-1.1-0.4-1.4-1.4-1.7c-8.7-2-17.3-4.1-26-6.3c-6-1.5-11.9-3.5-17.9-4.9C184,14.1,174,11.7,164,9.3
		c-11.2-2.7-22.1-6.3-33.6-7.5c-0.7-0.1-0.9,0-1,0.7c0,0.3-0.1,0.6-0.1,1c-0.2,3.5,0,7.1-0.2,10.6c-0.4,6.1-0.4,12.2-0.3,18.3
		c0.1,11.6,0.3,23.1,0.5,34.6c0.2,8.8-0.7,17.6-0.7,26.5c-0.1,30.3-0.1,60.6,0.1,90.9c0.1,7.4,0.2,14.8,0.2,22.2
		c0,3.5,0,7.1,0.1,10.6c0.2,8.2,0.1,16.4-0.2,24.5c-0.2,4.5-0.3,8.9-0.1,13.4c0.1,1.4-0.1,2.8,0.5,4.1c0.2,0.4,0.3,0.6,0.1,1
		C129,261,128.6,261.9,128.9,263z"/>
	<path class="st2" d="M358.8,277.9c0.1,0.2,0.2,0.3,0.2,0.3c3.8,0.5,7.5,1.5,11.4,1.6c0.2,0,0.5-0.1,0.6,0.2
		c0.1,0.3-0.2,0.5-0.5,0.6c-0.3,0.1-0.6,0.1-1,0.1c-1.4-0.1-2.8-0.2-4.1-0.3c-4.5-0.4-8.9-1.5-13.5-1.7c-5.8-0.3-11.6-0.4-17.4-1
		c-3.8-0.4-7.5-0.8-11.1-1.9c-2.7-0.8-5.5-1.6-8.4-1.6c-1.7,0-2.1,0.6-2,2.3c0.1,2.1,0.4,4.1,0.8,6.1c0.1,0.7,0.4,0.9,0.9,1
		c4.6,0.8,8.8,2.9,13.5,3.2c4.3,0.2,8.5,1.2,12.8,0.8c3.1-0.2,6,0.5,8.8,1.3c0.9,0.3,1.7,0.8,2.3,1.7c1.7,2.5,2.6,5.3,3.3,8.2
		c1.3,5,1,10.2,1.4,15.2c0.3,3.4,0,6.9,0.7,10.2c1.3,6.3,3.6,12.3,6.1,18.3c0.3,0.8,0.8,0.8,1.4,0.6c1.1-0.3,2.3-0.2,3.4-0.1
		c2.5,0.3,5,0.4,7.4-0.2c6.7-1.7,13.6-2.6,20.4-3.5c5.5-0.7,10.7-2.2,15.5-5c1.9-1.1,3.7-2.5,6-2.8c1.2-0.1,1.5-0.8,1.4-1.8
		c0-0.5-0.2-0.9-0.5-1.4c-1.2-2.1-2.4-4.1-3.7-6.2c-1.3-2.1-2.6-4.1-3.5-6.4c-2.9-7.2-4.2-14.8-6-22.2c-1.3-5.3-2-10.8-3.7-16.1
		c-1.1-3.4-2.2-7-1.5-10.7c0.1-0.4,0-0.8-0.1-1.2c-0.3-1.4-1.2-1.9-2.6-1.5c-1.2,0.4-2.4,0.9-3.7,1.3c-8.5,3-17.1,5.7-24.9,10.4
		c-0.6,0.4-1.6,0.3-1.5,1.4c0,0.1-0.4,0.3-0.6,0.3c-0.8,0.1-1.6,0.2-2.4,0.3C362.8,278.1,360.8,277.6,358.8,277.9z"/>
	<path class="st2" d="M255.5,293.2c-2.2,0-5.5,0.3-8.9,0.5c-2.5,0.2-5,0.8-7.3,1.6c-0.8,0.3-1.2,0.7-1,1.6c0.7,3.2,1,6.4,1.4,9.6
		c0.9,6.5,2,13,3.1,19.5c0.1,0.7-0.2,1.6,0.5,2.2c3.3,3.5,5.7,7.6,8.8,11.3c1.9,2.3,3.4,5,4.7,7.7c0.4,0.7,0.8,1.1,1.5,1.2
		c2.6,0.4,5.2,0.4,7.9,0.3c7.5-0.2,14.9-1.4,22.3-2.3c5.4-0.7,10.8-1.4,16.3-1c1,0.1,2.2,0.6,2.8,0.1c0.7-0.5,0.4-1.9,0.5-2.8
		c0-0.2,0.1-0.3,0.1-0.5c0.6-3.2,1-6.3,0.7-9.6c-0.4-3.8-1.4-7.5-2.2-11.2c-1.4-6.7-3.8-13.2-5.7-19.7c-1-3.5-1.8-7-3-10.4
		c-0.2-0.4-0.2-0.9-0.9-0.7c-1.2,0.2-2.3,0.3-3.5,0.5c-6,0.8-12,1.4-18.1,1.6C269.3,292.9,262.9,293,255.5,293.2z"/>
	<path class="st2" d="M425.4,268.1c0.8,0.3,1.7,0.2,2.6,0.4c0.3,0.1,0.9,0,0.7,0.5c-0.1,0.4-0.5,0.2-0.8,0.2c-2.2,0-4.4-0.3-6.5-0.5
		c-2.7-0.3-5.5-0.3-8.2-0.9c-3.5-0.7-7.1-1.1-10.6-2c-0.3-0.1-0.8-0.3-0.8,0.4c0,1.4-0.3,2.7,0,4.1c0.7,3.7,1.9,7.3,2.7,11
		c1.6,7.3,2.9,14.7,4.9,21.9c1.4,5,2.3,10,4.8,14.6c1.7,3.1,3.5,6.1,5.3,9.2c0.6,1,1.1,2.1,0.9,3.3c-0.1,0.6,0.2,0.7,0.7,0.8
		c2.6,0.5,5.3,0.5,8,0.5c4.5,0,9-0.2,13.5,0c4.1,0.1,8.2-0.1,12.1,1.4c4,1.5,7.9,1,11.9-0.1c2.1-0.6,2.2-1.3,1.4-3.3
		c-0.1-0.4-0.4-0.7-0.6-1c-2.7-3.4-4.8-7.1-7.1-10.8c-2.8-4.5-4.3-9.5-5.1-14.7c-0.7-4.5-1.4-9.1-1.9-13.6c-0.4-3.2-0.6-6.5,0.1-9.7
		c0.8-3.6,1.6-7.2,2.6-10.7c0.4-1.3,0.5-2.6,0-3.9c-0.4-0.8-0.7-1.1-1.7-0.9c-6.9,1.6-14,1.9-21.1,2.6
		C430.6,267.3,428,267.3,425.4,268.1z"/>
	<path class="st2" d="M328.3,287.6c0,0.1,0,0.1-0.1,0.2c2.7,1.2,5.4,2.5,8,3.7c0.5,0.2,1.5,0.1,1.3,0.8c-0.2,0.6-1,0.2-1.6,0
		c-3.1-0.9-6-2.5-9-3.7c-5.7-2.2-11.6-3.5-17.4-5.4c-1.4-0.5-2.9-0.8-4.3-1.1c-1.3-0.3-2.9,0.1-3.1,0.8c-0.5,1.8-1.2,3.7-1,5.6
		c0.3,2.4,0.7,4.8,1.1,7.2c0.9,5.2,2.3,10.2,3.5,15.4c1.3,6.1,3.1,12.1,4.8,18.1c1.4,4.9,2.3,9.9,1.6,15c-0.2,1.4-0.2,2.8-0.2,4.3
		c0,1.6,0.6,2.2,2.2,2.2c3.2-0.1,6.4-0.3,9.6-0.5c2.3-0.2,4.5-0.4,6.8-0.6c3.1-0.3,6.1-0.6,9.2-0.4c4.7,0.4,9.3,1.3,14.1,0.6
		c3.2-0.5,6.3-1.1,9.3-2.3c1-0.4,1.2-1,0.7-2c-1.2-2.4-2.2-4.9-3.1-7.4c-1.6-4.4-3.4-8.8-4.2-13.4c-0.9-5.7-0.9-11.6-1.2-17.4
		c-0.2-5.1-1.3-9.8-3-14.6c-0.5-1.3-1.3-2.3-2.5-2.6c-2-0.5-4-1.2-6.2-1.2c-3,0-5.9,0.2-8.9-0.2
		C332.6,288.2,330.5,287.9,328.3,287.6z"/>
	<path class="st2" d="M241.8,325.8c-0.3-1.6-0.5-3.2-0.9-4.8c-0.9-4.4-1.8-8.7-2.3-13.2c-0.4-3.7-0.5-7.4-1.4-11
		c-0.3-1.2,0.2-2.1,1.4-2.5c1.2-0.5,2.4-0.9,3.6-1.2c5-1.2,10.1-1.4,15.2-1.7c10.3-0.5,20.7,0.1,31.1-1c3.1-0.3,6.3-0.4,9.4-0.9
		c0.8-0.1,1.1,0.2,1.2,0.8c0.4,1.3,0.9,2.7,1.3,4.1c0.4,1.4,0.8,2.9,1.3,4.3c-0.3-2.9-0.7-5.8-1.2-8.6c-0.4-2.6,0.1-5,0.9-7.4
		c0.2-0.7,0.8-1,1.4-1.2c1.1-0.3,2.1-0.4,3.2-0.2c2.4,0.4,4.6,1.1,7,1.8c0-0.4,0.1-0.8,0-1.1c-0.4-1.9-0.7-3.7-0.7-5.6
		c0-1-0.5-1-1.2-0.9c-3.7,0.6-7.4,1-11.1,1.1c-6.7,0.2-13.5,0.3-20.2,0.8c-3.4,0.2-6.7,0.3-10.1,0.6c-4.4,0.4-8.7,0.9-13.1,1.4
		c-5.4,0.6-10.9,0.8-16.3,0.9c-8.5,0.2-16.9,0.4-25.4,0.8c-4.1,0.2-8.1,0.2-12.2,0.3c-1.5,0-3,0.2-4.5,0.2c2.4,6.7,3.1,13.6,3,20.7
		c0.6,0,1.3,0,2,0.1c3.4,0.7,6.8,0.6,10.2,0.9c2.5,0.2,4.9,0,7.4-0.4c1.2-0.2,2.3,0,3.2,1.1c0.6,0.7,1.2,1.3,1.9,1.9
		c4.2,3.7,7.5,8.1,10.4,12.8C237.9,321.2,239.8,323.5,241.8,325.8z"/>
	<path class="st2" d="M146,275.3c0.9,0.9,1.6,2,2.7,2.2c1.7,0.3,3.4,0.6,5.2,0.6c1.9-0.1,3.8-0.1,5.7,0c4.5,0.3,9,0.4,13.5,0.3
		c6.7-0.1,13.5-0.5,20.2-0.8c6.2-0.3,12.5-0.4,18.8-0.8c4.3-0.3,8.6-0.5,12.9-0.7c6.3-0.3,12.6-0.7,18.9-0.7
		c7.8-0.1,15.5-0.1,23.3-0.6c2.3-0.1,4.7-0.2,7-0.5c5.1-0.7,10.2-1.2,15.4-1.3c7.8-0.2,15.6-0.5,23.4-0.8c2.9-0.1,5.8-0.5,8.7-0.7
		c0.2,0,0.5,0.2,0.5-0.3c0-0.9,0-1.8,0-2.8c0-2.1-0.4-4.2-0.5-6.4c-0.1-2.4,0.1-4.9,0.2-7.3c0.2-7.3,0.1-14.6,0.2-21.8
		c0.2-11.6,0.4-23.2,0.5-34.8c0.1-8.5,0.2-16.9,0.5-25.4c0.1-4.6,0.2-9.1,0.1-13.7c-0.1-7,0.3-14,0.1-21c-0.1-2.4,0.1-4.8,0-7.2
		c-0.2-5.7-0.2-11.4-0.3-17.1c-0.2-14.7-0.1-29.4-0.1-44.1c0-0.8-0.2-1.7-0.1-2.5c0.6-6.2,0.4-12.4,0.8-18.6c0.1-2,0.1-2.1-2-2.6
		c-6-1.4-11.9-2.8-17.9-4.2c-8-1.9-16-3.7-23.9-5.7c-9.5-2.5-18.8-6-28.5-7.9c-2.1-0.4-4.1-1-6.1-1.5c-0.3-0.1-0.8-0.2-0.9,0.4
		c-0.1,0.5,0.1,0.8,0.6,0.8c0.2,0,0.4,0.1,0.6,0.2c10.4,2.5,20.7,5.2,31,8.2c8.2,2.4,16.2,5,24.7,6.3c6.3,1,12.5,2.8,18.7,4.1
		c1.3,0.3,1.9,1,1.9,2.4c0,1.4,0,2.8,0,4.3c0,17.5,0,34.9-0.1,52.4c-0.1,21.4,0.4,42.7-0.4,64.1c-0.3,9.3-0.5,18.5-0.8,27.8
		c-0.2,7.2-0.1,14.5-0.2,21.7c-0.2,12.4-0.1,24.9-0.1,37.3c0,3,0.1,5.9,0.2,8.9c0,0.8-0.4,1.7-0.2,2.5c0.2,0.7,0,0.8-0.5,0.8
		c-3.5,0.3-6.9,0.8-10.4,0.9c-5.2,0.3-10.3,0.4-15.5,0.5c-8.5,0.1-17-0.2-25.5,0.3c-3.4,0.2-6.7,0.3-10.1,0.5
		c-6.6,0.5-13.1,1-19.7,1.5c-7,0.5-13.9,0.9-20.9,0.9c-1.9,0-3.8,0-5.7,0.1c-9.8,0.3-19.5,0.6-29.3,0.9c-4.5,0.1-8.9,0.4-13.4,0.6
		c-6.7,0.3-13.5,0.8-20.2,0.2C148.1,275.1,147.1,275.1,146,275.3z"/>
	<path class="st2" d="M231.7,73.8c-1.1,0.1-1.9,0.4-2.7,0.7c-6.1,2.5-11.4,6.1-15.9,10.9c-3.1,3.3-5.5,7.2-7.7,11.1
		c-1.4,2.4-2.7,4.8-3.8,7.4c-0.1,0.3-0.4,0.6-0.1,0.9c0.2,0.3,0.5,0,0.8,0c0.8-0.1,1.5-0.3,2.3-0.4c3.3-0.5,6.6-0.9,9.9-1.4
		c4.1-0.6,8.1-1,12.2-1.2c4.9-0.3,9.8-0.4,14.8-0.3c0.8,0,1.2-0.2,1.1-1c0-0.2,0-0.4,0-0.6c-0.1-7.6,0.4-15.3,0-22.9
		c-0.1-1.8-0.3-3.6-0.6-5.3c-0.1-0.7-0.3-0.8-1-0.6c-1.3,0.3-2.1,1.3-3.4,1.6c-2.2,0.5-4.1,1.6-5.9,2.8c-2.2,1.4-4.3,2.9-5.7,5.3
		c-3.7,6.3-5.3,13.1-5.9,20.3c0,0.4,0.2,1-0.4,1c-0.5,0-0.5-0.6-0.5-1c0-0.2,0-0.3,0-0.5c0.7-6.1,1.8-12.1,4.4-17.7
		c1.5-3.3,3.7-5.8,6.7-7.7C230.7,74.6,231.3,74.4,231.7,73.8z"/>
	<path class="st2" d="M486.2,320.4c0-4.4,0.1-10.4-0.2-16.5c-0.1-1.1-0.4-1.6-1.6-1.6c-4.1-0.2-8.3-0.5-12.4-0.7
		c-5.1-0.2-10.1-1-15.2-1.7c-0.3,0-1-0.4-0.9,0.3c0,0.5-0.4,1.3,0.7,1.3c4,0.2,7.9,0.5,11.9,0.9c3.5,0.4,7,1,10.4,1.5
		c0.3,0,0.7,0.1,0.7,0.5c0,0.5-0.4,0.4-0.8,0.3c-1.3-0.2-2.6-0.4-3.8-0.6c-3.6-0.5-7.1-1-10.7-1.4c-2.4-0.3-4.8-0.4-7.3-0.6
		c-0.6,0-1,0-0.8,0.8c0.9,4.6,1.9,9,4.3,13.1c2.4,4,4.8,8,7.6,11.8c1.1,1.5,2.1,3.1,1.1,5.2c-0.2,0.4,0.2,0.4,0.5,0.5
		c3.6,0.7,7.1,1.4,10.7,2.2c0.6,0.1,1,0.1,1-0.7c0-3.5,0.3-7,0.2-10.5c0-5.8,0.2-11.6,0.3-17.4c0-0.3-0.2-0.8,0.3-0.8
		c0.5,0,0.4,0.5,0.5,0.8c0,0.2,0,0.3,0,0.5c0,8.9,0.1,17.8-0.7,26.7c-0.1,1.1-0.1,2.1,1.5,2.1c0.6,0,1.3,0.2,1.9,0.4
		c0.9,0.3,1,0,1-0.8C486.2,331.3,486.2,326.7,486.2,320.4z"/>
	<path class="st2" d="M243.3,89.4c0,3.6,0,7.2,0,10.7c0,1.1,0.3,1.4,1.4,1.4c4-0.1,8,0.2,11.9,0.4c3.4,0.1,6.8,0.3,10.2,0.5
		c0.7,0,0.8-0.2,0.8-0.9c0-1.5-0.4-2.9-0.6-4.3c-0.7-5.1-2.4-9.9-4.9-14.5c-1-1.9-2.4-3.4-4.1-4.8c-2.2-1.7-4.7-2.6-7.2-3.9
		c-2.3-1.2-4.8-2.2-7.3-3.2c-0.6-0.2-1.2-0.4-0.9,0.7c0.2,0.9,0.3,1.8,0.3,2.6C243.3,79.3,243.4,84.3,243.3,89.4z"/>
	<path class="st2" d="M435.8,88.6c1.7,1.3,3.5,2.5,4.8,4.2c2.1,2.7,3.3,5.9,4.3,9.2c0.8,2.8,1.1,5.8,1.5,8.7c0,0.4,0.2,1-0.5,1
		c-0.6,0-0.4-0.6-0.4-1c-0.1-0.6-0.2-1.3-0.2-1.9c-0.6-4.3-1.7-8.5-3.7-12.4c-1-2-2.2-3.8-4.1-5.1c-3.8-2.6-8-4.2-12.2-6
		c-0.6-0.2-0.7,0-0.6,0.7c0.3,2.9,0.6,5.7,0.6,8.6c0,5.1,0,10.2,0,15.2c0,0.8,0.2,1.1,1.1,1.1c4.8-0.1,9.6,0.4,14.4,0.5
		c1.7,0,3.5,0.2,5.2,0.4c2.9,0.3,5.9,0.6,8.8,1.1c0.7,0.1,1.1-0.1,0.8-0.9c-0.5-1.5-1-3.1-1.4-4.7c-2.5-8.2-7.9-13.9-15.4-17.7
		C437.7,89.4,436.7,89,435.8,88.6z"/>
	<path class="st2" d="M245.7,108.8c-4.2,0.1-11.4-0.2-18.7,0.2c-5.6,0.3-11.1,0.7-16.6,1.7c-2.5,0.4-5,1-7.5,1.6
		c-0.3,0.1-0.7,0.1-0.7,0.5c0,0.3,0.4,0.3,0.7,0.4c0.7,0.1,1.3,0.3,2,0.3c2.6,0.2,5.3,0.4,7.9,0.7c4.3,0.5,8.6,1,12.9,1.1
		c11.6,0.2,23.2,0.1,34.7-0.8c6-0.5,11.8-1.7,17.7-2.6c0.7-0.1,1.4-0.3,1.9-0.9c0.2-0.2,0.4-0.3,0.3-0.6c-0.1-0.3-0.4-0.3-0.6-0.3
		c-4-0.6-8-1.1-12-1.2C261.4,108.7,255.1,108.8,245.7,108.8z"/>
	<path class="st2" d="M240.1,102.8c-6.1-0.1-11.9,0.1-17.7,0.5c-4.3,0.3-8.6,0.9-13,1.4c-2.3,0.2-4.5,0.6-6.8,0.9
		c-1,0.1-1.7,0.4-1.8,1.7c0,1.2-0.1,2.4-0.2,3.5c0,0.9,0.1,1.2,1.2,0.9c3.5-1.3,7.2-2,10.9-2.6c7.2-1.1,14.5-1.6,21.9-1.7
		c9.8,0,19.5-0.1,29.3-0.1c2.1,0,4.2,0,6.3,0.2c3.2,0.3,6.3,0.6,9.4,1.1c0.4,0.1,0.9,0.2,1.1-0.2c0.4-0.7,0.2-1.5,0-2.3
		c-0.1-0.6-0.6-0.9-1.3-1c-5.4-0.7-10.7-1.4-16.1-1.6C255.6,103.2,247.7,102.6,240.1,102.8z"/>
	<path class="st2" d="M69.4,324.5c-1.9-2.8-3-5.5-4.2-8.2c-2.6-5.7-5.1-11.5-7.1-17.6c-0.9-2.6-1.2-5.4-2.1-8
		c-0.3-0.8-0.6-1.2-1.5-0.6c-0.7,0.5-1.5,0.9-2.2,1.3c-1.5,0.8-2.4,2.1-2.6,3.9c-0.4,2.6-0.2,5.1,0.2,7.6c0.9,5.9,1.7,11.9,2.5,17.8
		c0.1,0.5,0.2,0.6,0.7,0.7c3.2,0.6,6.4,1.3,9.6,1.9C64.8,323.8,66.9,324.1,69.4,324.5z"/>
	<path class="st3" d="M154.9,454.8c-0.2,0.8-0.7,0.7-1,0.9c-2.1,0.8-4.1,1.6-6.2,2.3c-0.9,0.3-0.4,0.8-0.3,1.2
		c0.1,0.7,0.5,0.5,0.9,0.3c1.2-0.5,2.4-0.9,3.6-1.4c1.1-0.4,2.2-0.9,3.5-1.4c-0.4,0.8-1,1-1.4,1.2c-1.8,0.8-3.6,1.6-5.5,2.3
		c-0.6,0.2-0.7,0.6-0.5,1.1c0.2,0.7,0.7,0.2,1,0.1c1.9-0.9,3.9-1.8,5.8-2.8c0.3-0.1,0.6-0.5,0.8-0.1c0.3,0.5-0.4,0.5-0.6,0.7
		c-2,1-3.9,2-5.9,2.9c-0.4,0.2-0.7,0.4-0.5,0.9c0.2,0.6,0.6,0.4,1,0.2c1.7-0.7,3.3-1.4,5-2.1c0.8-0.3,1.5-0.8,2.5-0.9
		c-0.2,0.6-0.7,0.8-1.2,1c-2,0.9-4,1.8-6,2.5c-1.1,0.4-0.8,1-0.6,1.7c0.3,1,0.9,0.3,1.2,0.1c2-0.9,4-1.9,6.1-3c-0.2,0.7-0.6,0.8-1,1
		c-1.8,0.9-3.6,1.9-5.4,2.7c-0.5,0.2-0.7,0.3-0.5,0.9c0.4,1.6,0.8,3.1,1.2,4.7c0.1,0.7,0.4,0.7,0.9,0.4c1.4-0.7,2.9-1.4,4.4-2.1
		c0.9-0.4,1.7-1,2.9-1.2c-0.6,0.7-1.2,0.9-1.8,1.2c-1.8,0.9-3.7,1.8-5.6,2.7c-1.1,0.5-0.3,1.2-0.2,1.8c0.1,0.6,0.7,0.1,1,0
		c2-0.9,3.9-1.9,5.9-2.9c0.4-0.2,0.8-0.5,1.3-0.2c-0.1,0.5-0.6,0.6-1,0.8c-1.2,0.6-2.4,1.2-3.6,1.8c-3.6,1.9-3.6,1.9-2.4,5.9
		c0,0.1,0,0.2,0.1,0.2c0.1,0.5,0.3,0.7,0.9,0.5c1.3-0.5,2.7-1,4.1-1.4c0.6-0.2,1.2-0.6,2-0.1c-0.4,0.2-0.7,0.4-1.1,0.5
		c-1.7,0.5-3.2,1.3-4.9,1.8c-0.8,0.3-0.6,0.7-0.2,1.1c0.7,0.8,3.5,1.1,4.5,0.6c1.2-0.6,2.5-0.9,4-0.9c-0.6,0.9-1.6,0.6-2.3,1.2
		c1.6,0,3,0,4.5,0c1.4,0,1.5-0.2,1.1-1.5c-0.8-2.6-1.7-5.2-2.5-7.9c-2.2-8.2-4.4-16.4-6.6-24.5c-0.2-0.7-0.4-1-1.2-0.8
		c-3.1,0.5-6.2,0.9-9.3,1.3c-0.4,0.1-0.9,0-0.8,0.7c0.1,0.7,0.5,0.5,1,0.3c2.2-0.6,4.3-1.2,6.5-1.7c0.7-0.1,1.5-0.6,2.3,0.3
		c-3,0.4-5.8,1.3-8.5,2.1c-0.5,0.1-1,0.2-0.7,1c0.3,0.8,0.7,0.4,1.1,0.3c2.1-0.7,4.2-1.3,6.3-1.9c0.5-0.2,1.1-0.3,1.8,0.2
		c-2.9,0.6-5.5,1.5-8.1,2.4c-0.9,0.3-0.6,0.9-0.4,1.4c0.2,0.7,0.5,0.4,1,0.3c2.7-1.1,5.4-2.2,8.1-3.2c0.3-0.1,0.5-0.3,0.8,0
		c-0.6,0.7-1.5,0.9-2.3,1.2c-2.2,0.9-4.4,1.8-6.6,2.7c-0.4,0.2-0.8,0.3-0.5,0.9c0.2,0.5,0.5,0.3,0.9,0.2c0.2-0.1,0.4-0.1,0.6-0.2
		C150.4,456.4,152.5,455.4,154.9,454.8z"/>
	<path class="st2" d="M390.4,120.4c0.3,0.4,0.5,0.4,0.8,0.4c2,0.4,3.9,0.4,5.9,0.6c4.5,0.5,9,1,13.6,1.2c5.3,0.2,10.6,0,15.8-0.1
		c6.5-0.1,13.1-0.3,19.5-1.4c2.7-0.5,5.4-0.9,8-1.3c0.9-0.2,1.7-0.4,2.1-1.4c-3.6-0.6-7.1-1.1-10.6-1.1c-11.4-0.1-22.8-0.3-34.1,0.2
		c-5.1,0.2-10.1,0.6-15.1,1.6C394.4,119.4,392.4,119.7,390.4,120.4z"/>
	<path class="st2" d="M422,112.1c-3.7-0.2-7.7,0.1-11.6,0.2c-5.4,0.2-10.8,1.1-16.2,1.7c-1.4,0.2-3.2,0-4.1,0.8
		c-1,0.9-0.5,2.7-0.6,4.1c0,0,0,0.1,0,0.1c-0.1,0.6,0.2,0.8,0.8,0.6c1-0.4,2.1-0.7,3.1-0.9c8-2,16.2-2.6,24.4-2.6
		c7.4-0.1,14.8,0.1,22.2,0c5.1-0.1,10.2,0.3,15.3,1c0.5,0.1,1.2,0.5,1.3-0.5c0.2-1.3-0.2-2.2-1.1-2.3c-3.5-0.4-6.9-1.1-10.4-1.2
		C437.5,112.6,429.9,111.9,422,112.1z"/>
	<path class="st2" d="M421.4,375.9c-0.4,0.3-0.8,0.4-1.1,0.7c-0.4,0.5-0.6,1,0.2,1.3c2.1,0.8,3.4,2.2,4.1,4.3
		c0.2,0.6,1.3,0.9,1.7,0.4c1-1.5,2.6-1.7,4-2.4c2-0.9,4.2-1.5,6.1-2.7c0.4-0.3,0.9-0.5,1-1c0.1-0.7,0.5-1.1,1-1.4
		c0.4-0.3,0.5-0.7,0.5-1.1c0.2-2.3-0.7-4.4-1.6-6.5c-0.4-1.1-1-2.2-2.5-2.4c-0.5,0-0.8-0.6-1.1-0.9c-0.6-0.7-1.2-1.7-2.1-1.8
		c-1.7-0.3-3.2-1.6-5.3-1c-1.9,0.5-3.9,0.7-5.4,2.2c-1.1,1-1.3,1.8-0.5,3c1.3,2.1,2.4,4.2,1.6,6.7c-0.3,0.9,0.4,1.7,0,2.5
		c-0.4,0.9,0,1.1,0.8,1.2c0.6,0,1.1,0,1.6-0.4c0.1-0.1,0.3-0.3,0.5-0.1c0.2,0.2,0.1,0.4-0.1,0.5c-0.9,0.8-2,0.7-3,0.5
		C421.1,377.5,421.6,376.6,421.4,375.9z"/>
	<path class="st2" d="M256.4,74.9c0.3,0.6,0.7,0.7,1.1,1c2.6,1.8,4.8,4,6.2,6.9c3.1,6.1,4.7,12.6,4.7,19.4c0,0.4,0.2,0.5,0.5,0.5
		c3.2,0.3,6.4,0.7,9.6,1.3c0.9,0.1,1-0.3,0.8-1.1c-0.5-1.9-1.1-3.7-1.7-5.6c-2.6-8.5-7.9-14.9-15.5-19.5
		C260.5,76.7,258.6,75.7,256.4,74.9z"/>
	<path class="st2" d="M392.7,264.7c-0.4-0.1-0.8,0-1.1,0c-1.5,0.3-3.1,0.5-4.6,0.3c-2.8-0.3-5.6-0.7-8.5-0.7c-1.3,0-2.7-0.2-4-0.3
		c-2.9-0.3-5.8-0.8-8.7-1.4c-1.6-0.3-3.5,1.1-3.3,2.5c0.6,3.2,0.4,6.4,0.5,9.6c0,0.4,0,0.7,0.1,1.1c0.1,0.8,0.5,1.1,1.4,1
		c1.6-0.2,3-0.8,4.3-1.6c7-4,14.5-7,22.1-9.6C391.4,265.4,392.1,265.2,392.7,264.7z"/>
	<path class="st2" d="M417.6,362.5c0.7-1.1,0.9-4.8,0.6-6.6c-0.3-2.5-4.6-5.9-7.5-6.1c-0.4,0-0.8-0.1-1.2-0.2
		c-1.1-0.5-2-0.1-2.8,0.6c-0.9,0.9-1.9,1.5-3.2,1.5c-1.2,0-1.8,0.8-2.2,1.8c-0.7,1.8-1.7,3.5-1.3,5.6c0.1,0.4-0.1,0.8-0.2,1.2
		c-0.2,0.9-0.1,1.8,0.1,2.8c0.5,1.6,1.3,3,2.2,4.4c0.2,0.4,0.3,1.2,0.9,0.9c0.5-0.2,1.1-0.4,1.3-1.1c0.4-1.2,1.2-2,2.2-2.7
		c0.6-0.4,1-0.9,1.2-1.6c0.4-1.1,1.1-2.1,2.5-2.3C413,360.4,415.6,360.2,417.6,362.5z"/>
	<path class="st2" d="M413.4,364.4c-0.6,0-1.2-0.1-1.4,0.6c-0.2,0.6,0.3,0.8,0.8,1.1c0.5,0.3,1,0.7,1.5,1c0.4,0.3,0.5,0.6,0,0.7
		c-1.4,0.3-2.7,0.7-3.9,1.6c-0.2,0.1-0.4,0.1-0.6-0.1c-0.2-0.2,0-0.3,0.1-0.5c0.4-0.7,1.1-1,1.9-1.2c0.4-0.1,0.9-0.2,0.7-0.7
		c-0.1-0.3-0.5-0.4-1,0c-0.5,0.4-1.9-0.1-2.3-0.8c-0.5-0.9-1.8-1.2-2.6-0.5c-0.6,0.5-1.1,1.1-1.5,1.7c-0.4,0.8-0.5,1.7-0.8,2.5
		c-0.3,0.8-0.2,1.2,0.5,1.5c0.6,0.3,0.8,0.7,0.6,1.4c-0.2,0.8,0.2,1.5,0.9,2c0.3,0.2,0.9,0.4,0.8,0.8c-0.2,1.8,2,1,2.4,2.1
		c0.9-0.5,2-0.2,2.8-0.6c0.7-0.3,1.3-0.5,2.1-0.6c1.2-0.1,2.4,0.3,3.6,0.2c1.1,0,2.6-0.6,3-1.7c0.5-1.5,0.7-3.1,0.3-4.8
		c0,0,0-0.1-0.1-0.1c-0.8-1.6-1.7-3.1-2.4-4.7c-0.3-0.8-0.7-1.1-1.4-1.2c-0.7,0-1.5,0.1-0.7-1c0.1-0.2,0.1-0.4,0-0.4
		c-1-0.2-1.6-1.3-2.7-1.3c-1.1,0-2.3,0.1-3.4,0.3c-0.8,0.1-2,1.5-1.9,2.2c0.1,0.7,0.8,0.8,1.2,1c1.2,0.4,0.6-0.8,1.1-1
		c-0.2-0.1-0.3-0.1-0.4-0.1c-0.3-0.1-0.9,0.5-1-0.2c0-0.5,0.6-0.5,1.1-0.5c0.4,0,0.9,0.4,1.3,0.1c1.3-1,2.3,0.2,3.3,0.5
		c0.4,0.1,1,0.7,0,1c-0.4,0.1,0,0.3,0,0.4c0.2,0.2,0.5,0.4,0.3,0.7c-0.2,0.3-0.5,0.2-0.8,0c-0.3-0.2-0.6-0.1-0.9-0.1
		C412.9,365.7,412.8,365.5,413.4,364.4z"/>
	<path class="st2" d="M449.7,361.3c0.6-0.4,1.4,0.1,0.9-0.9c-0.2-0.4,0.2-0.7,0.7-0.5c0.3,0.2,0.6,0.5,1,0.7
		c0.9,0.5,0.4,1.6,1.1,2.1c0.2,0.2,0.8,0.3,0.4,0.8c-0.2,0.2-0.4,0.4-0.7,0.4c-0.5,0-0.5-0.4-0.5-0.8c-0.1-0.9-0.3-2.1-1.7-1.2
		c-0.1,0.1-0.4,0.1-0.5,0c-0.8-0.7-1.3,0.2-1.4,0.5c-0.2,0.4,0.4,0.8,0.9,1.1c0.5,0.3,1.3,0.3,1.5,1c0.5,1.7,1.7,1.8,3.1,1.5
		c0.7-0.1,1.3-0.3,1.7-1c0.4-0.5,0.9-0.9,1.4-1.4c1-0.9,2.1-1.9,2.5-3c1-2.5-0.6-4.8-1.3-7.1c0-0.1-0.3-0.2-0.5-0.3
		c-1.3-0.6-2.1-2.1-3.7-2.3c-0.1,0-0.3-0.3-0.3-0.5c-0.9-1.7-2.4-2.3-4.2-2.1c-1.9,0.3-3.3,1.3-4.2,3c-0.3,0.7-0.2,1.4,0.6,1.6
		c1.5,0.3,1.6,2.1,2.9,2.5c0.1,0,0.2,0.3,0.2,0.4C449.4,357.7,450.7,359.2,449.7,361.3z"/>
	<path class="st2" d="M76.2,431.1c-0.1-0.2-0.2-0.3-0.2-0.3c-6-2.3-12.1-4.6-18.1-7c-0.5-0.2-0.7-0.2-1,0.3
		c-1.9,3.3-4.2,6.4-6.4,9.5c-0.2,0.2-0.5,0.4-0.3,1C58.7,432.9,67.4,431.9,76.2,431.1z"/>
	<path class="st2" d="M323,274.3c0.3,0.1,0.7,0.2,1,0.3c5.2,1.7,10.7,1.6,16.1,2.1c3.1,0.3,6.2,0.2,9.4,0.5c2.8,0.2,5.7,0.6,8.5-0.2
		c1-0.3,2-0.3,3-0.3c1,0.1,1.6-0.1,1.2-1.3c-0.2-0.8-0.1-1.6,0-2.4c0.1-0.8-0.3-0.9-1-0.8c-2.8,0.3-5.6,0.7-8.3,0.9
		c-6.2,0.6-12.3,0.4-18.5,0.7C330.6,274.1,326.8,274.2,323,274.3z"/>
	<path class="st2" d="M439.9,373.8c1-0.6,1.7-1.5,3.1-1.2c2.2,0.5,4.1,1.6,5.6,3.3c0.3,0.3,0.5,0.4,0.9,0.1c1.4-1,2.6-1.9,3.1-3.7
		c0.6-2.1,0-3.8-1-5.4c-0.8-1.3-1.9-2.3-3-3.3c-1.2-1.1-2.4-2.1-4.1-1.7c-0.5,0.1-0.9,0-1.3-0.1c-1.6-0.6-2.9,0.1-4,1
		c-2.8,2.3-2.4,2-1,5.1c0.4,0.9,0.9,1.8,1,2.7C439.4,371.7,439.6,372.7,439.9,373.8z"/>
	<path class="st2" d="M446.7,361.4c1,0.5,1.1,0.5,1.6-0.4c0.9-1.7,0.5-4.1-0.9-5.5c-0.3-0.2-0.3-0.7-0.6-0.9c-0.9-0.9-1.8-1.8-3-2
		c-0.7-0.2-1.4-0.2-1.8-0.9c-0.2-0.3-0.5-0.5-0.8-0.5c-2.1-0.4-4.2-0.5-6.2,0.5c-0.4,0.2-0.7,0.3-1.1,0.4c-1.6,0.4-2.9,2.3-2.6,3.8
		c0.4,1.9,0.4,3.8-1,5.4c2.3,0.8,5.1,0.5,6,3.6c0.8-1.5,1.8-2.4,3-3.1c0.6-0.4,1.3-0.5,0.8-1.5c-0.2-0.4,0-1,0.6-1.3
		c0.4-0.2,0.8-0.6,1.3-0.9c-0.7,0-1.1,0.1-1.6-0.3c-0.6-0.5-1.2-0.5-1.7,0.1c-0.2,0.2-0.4,0.5-0.7,0.1c-0.4-0.7-0.9-0.3-1.4-0.2
		c-0.4,0.1-0.8,0.1-1.2,0.1c-0.3,0-0.4-0.3-0.4-0.5c0-0.3,0.1-0.5,0.5-0.3c0.8,0.4,1.5,0,2.3-0.4c0.8-0.4,1.9-0.5,2.5,0.2
		c1,1,1.5,0.4,2.2-0.2c0.3-0.3,0.6-0.6,0.9-0.8c0.8-0.6,1-0.1,1.4,0.4c-0.5,0.4-0.6-0.4-1.1-0.1c-0.8,0.5-1.1,1.4-1,2.2
		c0,0.6,0.3,0.5,0.6,0.6c0.6,0.1,0.6,0.5,0.2,0.8c-0.2,0.2-0.5,0.2-0.6,0.6c0.5,0,0.9,0,1.3,0c0.4-0.1,0.7-0.3,0.8-0.8
		c0.1-0.5-0.1-0.7-0.5-0.7c-0.2,0-0.3-0.2-0.3-0.3c0-0.2,0.2-0.4,0.4-0.4c0.5-0.1,1,0,1,0.7c0,0.3-0.1,0.6,0.4,0.5
		c0.6-0.1,1.5-0.1,1.6,0.3c0.2,0.5-0.4,1-0.8,1.5C446.9,361.2,446.9,361.3,446.7,361.4z"/>
	<path class="st2" d="M444.5,351.6c-1-0.5-1.1-0.6-0.6-1c1.1-0.9,1.4-3.2,0.5-4.2c-0.8-0.9-1.3-2.1-2-3c-1.2-1.6-2.6-2.9-4.8-2.8
		c-2.2,0.2-4.5,0.2-6.1,2.2c-0.2,0.2-0.5,0.4-0.8,0.5c-1.4,0.9-2,2.2-2.5,3.8c0.8-0.2,1.4-1.2,2-0.3c0.5,0.7-0.7,0.3-0.8,0.9
		c0.2,0.4,1.2,0.3,0.9,0.9c-0.3,0.6-0.8,0-1.2-0.1c-0.5-0.1-0.7,0-0.6,0.5c0.4,1.9,0.5,3.8,2.1,5.2c1-1.8,1.3-2.3,2.5-2.6
		c1.1-0.3,2.1-0.9,3.3-1.2c1.1-0.4,2.3-0.3,3.4-0.3c1,0,2.3,0,2.9,1.2C443.1,351.8,443.7,351.9,444.5,351.6z"/>
	<path class="st3" d="M130.7,447.1c0.3-1.7,0.8-3.1,0-4.4c-1-1.8-2.1-3.6-2.6-5.6c-0.7-2.5-2-4.3-4.7-4.9c-0.6-0.1-1.1-0.5-1.7-0.7
		c-1.5-0.5-3-1.1-4.6-1.2c2,6.1,4.5,11.9,6.8,17.8c0.6,1.5,1.8,1.4,3.1,2c-2.2-5.6-4.2-10.9-6.2-16.1c-0.2-0.4-0.7-1-0.1-1.3
		c0.7-0.3,0.7,0.6,0.9,1c0.6,1.7,1.2,3.5,1.8,5.2c1.3,3.6,2.6,7.1,3.9,10.6c0.3,0.9,0.9,1.4,1.8,1.2c0.7-0.1,1.7-2.9,1.3-3.5
		c-1.2-1.6-1.7-3.5-2.5-5.3c-1.2-2.5-2.2-5.1-3.3-7.7c-0.1-0.3-0.4-0.6,0-0.7c0.3-0.2,0.5,0.2,0.6,0.4c0.2,0.5,0.5,0.9,0.7,1.4
		C127.4,439.2,128.9,443,130.7,447.1z"/>
	<path class="st2" d="M314.5,437.4c-0.1-0.1-0.2-0.2-0.2-0.2c-4.1-1.6-8-3.4-11.8-5.6c-0.7-0.4-0.9-0.1-0.8,0.5c0.2,2,0.2,4,0.2,6
		c0,2.2,0.1,2.2,2.2,1.8C307.6,439.2,311,438.4,314.5,437.4z"/>
	<path class="st3" d="M123.6,448.6c-2.2-5.1-4.4-10.1-6.2-15.3c-0.4-1-0.5-2.2-1-3c-0.5-0.8-2.1-0.4-3.2-0.8c-1.1-0.4-1.1,0-0.8,0.9
		c1.7,4.8,3.5,9.6,5.1,14.4c0.3,1,0.8,1.6,1.9,1.7c-2-5.1-3.9-10.1-5.9-15.2c0.8,0.3,0.9,0.9,1.2,1.5c1.8,4.5,3.6,9.1,5.3,13.6
		c0.2,0.5,0.4,0.8,0.9,0.8c-2.1-5-4-9.9-5.2-15.2c0.4,0.2,0.6,0.6,0.7,1c1.2,4.3,2.7,8.4,4.4,12.5
		C121.3,447,121.8,448.4,123.6,448.6z"/>
	<path class="st2" d="M242,59.5c-1.5-0.5-2.1,0.4-2.8,1.5c-0.6,1-1.3,2-1.3,3.2c0,1.2,0.6,2.3,1.5,3c1.2,0.9,2.7,0.1,4.1,0.5
		c0.7,0.2,2.5-2.5,2.4-3.7c-0.1-1.7-1.2-2.9-2.1-4.2C243.4,59.2,242.6,59.6,242,59.5z"/>
	<path class="st2" d="M440,394.1c-0.1-1.3-0.4-2.6-0.4-4c-0.1-2.7,0-5.4,0-8.2c0-0.5,0.1-1-0.6-1.1c-1.8-0.3-3.7-0.5-5.5-0.7
		c-0.4-0.1-0.7,0-0.7,0.6c-0.1,0.6-0.2,1.2-0.1,1.9C433.7,387.3,437,390.6,440,394.1z"/>
	<path class="st3" d="M482.5,387.7c0,0.1,0.1,0.2,0.1,0.3c-0.3,0.1-0.5,0.3-0.8,0.4c-1.2,0.3-2.4,0.7-3.6,1
		c-0.4,0.1-0.6,0.1-0.5,0.6c0.1,0.6,0.4,0.3,0.7,0.2c0.7-0.2,1.3-0.4,2-0.4c0.8,0,1.6-0.7,2.7,0.1c-1.6,0.4-3,0.7-4.4,1.1
		c-0.3,0.1-0.6,0.1-0.6,0.4c0,0.3,0.1,0.6,0.3,0.8c0.3,0.3,0.7,0,1-0.1c2.9-0.8,2.9-0.8,4.1-0.4c-1.7,0.6-3.3,0.7-4.7,1.5
		c1.6,0.1,3.1-0.9,4.7-0.4c-1.2,0.4-2.4,0.8-3.7,1c-1.2,0.2-0.9,1.1-0.8,1.8c0.1,0.7,0.7,0.5,1.1,0.4c1.4-0.2,2.7-0.4,4.1-0.5
		c0.3,0,0.8-0.3,0.8,0.2c0,0.5-0.5,0.2-0.8,0.3c-0.6,0.1-1.3,0.3-1.9,0.4c1,0.4,2-0.2,2.9-0.2c0.7-0.1,0.9-0.4,0.6-1.1
		c-1.1-3-2.4-6-3.2-9.2c-0.2-0.7-0.6-0.7-1.1-0.5c-1.4,0.4-2.8,0.9-4.3,1.4c-0.2,0.1-0.6-0.2-0.4,0.3c0.1,0.4,0.3,0.4,0.6,0.3
		c0.7-0.2,1.3-0.4,2-0.5c0.8-0.1,1.6-0.6,2.5-0.1c-1.6,0.9-3.3,0.8-4.7,1.7C479.1,388.6,480.7,387.7,482.5,387.7z"/>
	<path class="st3" d="M468,458.7c-1.9-1.4-3-3.1-4.2-4.6c-0.6-0.7-0.6-0.7-1.5-0.5c0.9,1.3,1.8,2.5,2.9,3.6c0.2,0.2,0.5,0.4,0.2,0.7
		c-0.2,0.2-0.4-0.1-0.6-0.3c-1.1-1.2-2.2-2.4-3.2-3.6c-0.5-0.5-0.9-0.7-1.6-0.5c0.9,1.7,2.3,3,3.4,4.7c-0.8-0.1-1-0.5-1.3-0.9
		c-0.9-1.1-1.8-2.3-2.7-3.4c-0.3-0.4-0.3-0.4-1-0.3c0.9,1.6,2.2,3,2.8,4.9c-1.1-1.2-2-2.5-3-3.8c-1-1.4-1.4-1.6-3.2-1.1
		c1.1,1.7,2.5,3.1,3.5,4.8c-0.4,0.2-0.5,0.1-0.7-0.1c-1.2-1.4-2.4-2.8-3.5-4.3c-0.4-0.6-0.9-0.7-1.6-0.6c1.4,1.8,2.7,3.5,4,5.2
		c0.1,0.2,0.3,0.2,0.5,0.2C460.7,458.8,464.2,458.9,468,458.7z"/>
	<path class="st2" d="M423.8,82.8c0.6,0,1.4,0.2,1.9,0c1.3-0.7,2-3,1.3-4.3c-0.4-0.8-0.9-1.5-1.4-2.1c-0.4-0.6-2.9-0.6-3.3,0
		c-0.4,0.6-0.8,1.2-1.1,1.9c-0.7,1.1-0.7,2.2,0,3.4C421.8,82.7,422.7,82.8,423.8,82.8z"/>
	<path class="st2" d="M36.5,318.4c4.8,0.9,9.5,1.8,14.3,2.6c-0.2-1.2-0.4-2.1-0.5-3.1c-0.1-0.6-0.3-0.8-0.9-0.7
		c-2.7,0.2-5.5,0.3-8.2,0.6C39.6,318.1,38.1,318,36.5,318.4z"/>
	<path class="st3" d="M473.7,376.5c0.2,0.2,0.4,0.2,0.5,0.1c1.4-0.5,2.8-0.8,4.2-1c0.3,0,0.5-0.1,0.6,0.2c0.1,0.4-0.3,0.4-0.5,0.4
		c-1.3,0.4-2.6,0.7-3.8,1.1c-0.2,0.1-0.8-0.1-0.6,0.5c0.1,0.6,0.5,0.3,0.9,0.2c1.2-0.3,2.4-0.6,3.6-0.8c0.3-0.1,0.8-0.2,0.8,0.2
		c0.1,0.5-0.4,0.4-0.7,0.5c-1.2,0.2-2.4,0.5-3.6,0.9c-0.2,0.1-0.8-0.1-0.7,0.5c0.1,0.4,0.5,0.3,0.8,0.3c1.4-0.4,2.9-0.8,4.3-1.1
		c0.5-0.1,0.7-0.2,0.5-0.8c-0.6-2-1.1-4-1.6-6c-0.1-0.6-0.4-0.8-1-0.6c-1.5,0.4-3.1,0.7-4.6,1.1c-0.2,0.1-0.6,0.1-0.5,0.5
		c0.1,0.4,0.4,0.3,0.7,0.3c0.7-0.1,1.4-0.4,2.1-0.4c0.6,0,1.6-0.7,1.8,0.1c0.1,0.4-1.1,0.4-1.8,0.6c-0.8,0.3-1.8,0.1-2.6,1.1
		c1.4-0.1,2.4-0.7,3.6-0.7c0.3,0,0.6-0.4,0.8,0c0.2,0.5-0.5,0.4-0.6,0.7c0.6,0.1,1.2-0.6,1.9,0.1
		C477.1,375.6,475.2,375.6,473.7,376.5z"/>
	<path class="st3" d="M426.8,348.8c-1,1.2-1.9,2.3-3,3.4c-1.1,1.1-2.2,2.3-3.3,3.4c-0.4,0.4-0.9,0.9-0.6,1.5
		c0.8,1.4,0.9,2.9,1.3,4.4c0.1,0.2,0,0.6,0.5,0.5c0.3-0.1,0.7-0.2,0.5-0.7c-0.1-0.5-0.3-1-0.4-1.5c-0.3-1.2-0.6-2.3-0.8-3.5
		c-0.1-0.3-0.1-0.6,0.3-0.7c0.4-0.1,0.4,0.3,0.4,0.6c0,0.2-0.1,0.4,0.2,0.5c0.1-0.5,0.1-0.9-0.1-1.3c-0.1-0.3-0.1-0.7,0.3-0.8
		c0.4-0.1,0.5,0.3,0.6,0.6c0.1,0.7,0.1,1.4,0.2,2.2c0.1,1.4,0.6,2.7,0.5,4.2c0.5-1.8,1.5-3.4,1.3-5.5c-0.2-1.5-1.4-3.3,0.9-4.4
		c0.5,1.2-0.7,2.3-0.2,3.5C425.8,353,426.3,350.9,426.8,348.8z"/>
	<path class="st3" d="M477.4,453.8c1.1,1.3,2,2.5,3.2,3.5c0.2,0.2,0.7,0.3,0.5,0.7c-0.3,0.4-0.6-0.1-0.9-0.3
		c-1.3-0.9-2.2-2.2-3.3-3.3c-0.9-0.9-0.9-0.9-2.2-0.6c1.2,1.8,2.8,3.1,4.2,4.7c0.1,0.1,0.2,0.2,0.3,0.2c1.7,0,3.3,0,5,0
		c-1.1-1.2-2.1-2.3-2.9-3.5C480.3,453.8,479.1,453.6,477.4,453.8z"/>
	<path class="st3" d="M443.5,384.2c0-2.2-0.1-4.4,0-6.6c0.1-1.3-0.5-1.6-1.5-1.8c-0.7-0.1-1.1-0.1-1,0.8c0.1,1.4,0,2.8,0,4.1
		c0,4,0,3.4,3.2,4.4c0.1,0,0.1,0.1,0.2,0.1c0.4,0.1,0.5,0,0.5-0.4c0-2.4,0-4.9,0-7.3c0-0.3-0.1-0.6-0.4-0.6c-0.5,0-0.3,0.4-0.3,0.6
		c0,1.6,0,3.2-0.1,4.8C444.2,382.9,444.1,383.6,443.5,384.2z"/>
	<path class="st3" d="M464.3,453.5c1,1.6,2,3,3.4,4.1c0.4,0.3,0.3,1.1,0.9,1.1c1.5,0.1,3,0,4.7,0c-1.4-1.6-2.8-2.9-3.9-4.4
		c-0.6-0.8-1.1-0.9-1.9-0.7c1.1,1.4,2.1,2.7,3.3,3.9c0.2,0.2,0.5,0.4,0.3,0.7c-0.2,0.3-0.5,0-0.7-0.2c-1.2-1.1-2.5-2.3-3.4-3.6
		C466.2,453.5,465.5,453.2,464.3,453.5z"/>
	<path class="st3" d="M399.4,381.6c1.1-1.2,2.5-1.9,3.9-2.5c1.1-0.5,2.2-1.1,3.2-1.6c0.2-0.1,0.6-0.1,0.4-0.6
		c-0.4-0.9-0.5-2-1.7-2.2c-0.3,0.4,0.2,1.2-0.3,1.2c-1.4-0.1-0.6,0.7-0.6,1.1c0,0.3,0.2,0.6-0.2,1c-0.8-1.4-0.2-2.9-0.5-4.3
		c-0.8,1.6,0,3.4-1,4.9c0-1.4,0-2.8,0-4.2c-0.4,0.1-0.4,0.4-0.4,0.6c-0.2,1.2-0.2,2.4-0.2,3.6c0,0.3-0.1,0.6-0.4,0.6
		c-0.4-0.1-0.1-0.4-0.1-0.6c0-1,0-2,0-2.9c-0.1,1.5-0.5,2.9-0.7,4.4c-0.4-0.8-0.2-1.7-0.4-2.8C399.8,378.8,399.4,380.2,399.4,381.6z
		"/>
	<path class="st3" d="M431.6,380.7c-0.1,0.3-0.2,0.6-0.5,0.9c-1.3,0.9-2,2.2-3,3.3c-0.4,0.4-0.4,0.9,0.1,1.1c1.7,0.9,3,2.2,4.6,3.1
		c0.2,0.1,0.7,0.6,0.9,0.1c0.2-0.4,0.9-0.9,0.2-1.5c-0.3,0.2-0.2,0.9-0.8,0.7c-0.6-0.2-0.2-0.7,0-1c0.3-0.7,0.2-1.3-0.4-1.8
		c-0.1,0.1-0.2,0.3-0.3,0.3c-0.5,0.3-0.3,1.7-1.1,1.2c-0.6-0.3,0.4-1,0.6-1.6c0.1-0.4,1-0.7,0.3-1.3c-0.3,0.5-0.7,0.9-1,1.4
		c-0.2,0.2-0.3,0.6-0.7,0.3c-0.3-0.2-0.1-0.5,0.1-0.7c0.4-0.4,0.7-0.9,1.1-1.3c0.5-0.4,0.4-0.8,0-1.2c-0.7,0.8-1.2,1.7-1.7,2.5
		c-0.2,0.3-0.3,0.7-0.7,0.4c-0.3-0.2-0.2-0.5,0-0.8c0.6-0.8,1-1.9,1.9-2.5C431.9,381.8,431.7,381.3,431.6,380.7z"/>
	<path class="st3" d="M440.3,452.9c1,1.9,2.6,3.3,3.4,5.2c-1.7-1.3-2.9-2.9-4-4.6c-0.4-0.6-0.9-0.8-1.8-0.7c1.4,1.9,2.7,3.6,4.1,5.4
		c0.1,0.2,0.3,0.2,0.5,0.2c1,0,2.1,0,3.3,0c-1.4-1.8-2.7-3.3-3.9-4.9C441.5,452.9,441.1,452.7,440.3,452.9z"/>
	<path class="st3" d="M455.9,458.6c-1.3-1.5-2.6-2.9-3.7-4.4c-0.9-1.2-1.9-1.1-3.3-1c1.1,1.4,2.3,2.6,3.1,4
		C453,458.8,454.2,458.9,455.9,458.6z"/>
	<path class="st3" d="M459.3,380c0.1-1.2-0.1-2.2-0.2-3.1c-0.2-2.2-2.4-4.7-4.6-5.1c-0.3-0.1-0.6,0-0.8,0.2
		c-0.2,0.3,0.1,0.5,0.3,0.7c1,0.8,1.8,1.8,2.5,2.9C457.5,376.9,458.3,378.4,459.3,380z"/>
	<path class="st3" d="M488.5,458.5c-1-1.1-2-2-2.8-3.2c-1.2-1.8-2.8-1.6-4.7-1.5c0.5,0.7,0.9,1.2,1.3,1.7c1.5,1.8,2.9,3.9,5.8,3
		C488.2,458.6,488.3,458.6,488.5,458.5z"/>
	<path class="st3" d="M496.9,458.2c-1-1.3-2-2.5-2.8-3.7c-0.5-0.8-1.1-1.1-2-0.7c0.8,1.3,1.7,2.5,2.7,3.6c0.2,0.2,0.7,0.5,0.4,0.8
		c-0.4,0.4-0.6-0.1-0.9-0.3c-1-1.2-1.9-2.3-2.8-3.5c-0.4-0.5-0.7-1-1.6-0.5c1.2,1.5,2.3,2.9,3.5,4.4c0.1,0.2,0.3,0.3,0.5,0.2
		C494.9,458.3,495.8,458.6,496.9,458.2z"/>
	<path class="st3" d="M402.2,372.9c-0.5,0.1-1,0.2-1.5,0.1c-0.3,0-0.6,0-0.6-0.4c0-0.4,0.4-0.3,0.6-0.3c1-0.1,2-0.1,3-0.5
		c-0.3-0.4-0.6-0.4-0.9-0.5c-0.4-0.1-0.6-0.3-0.6-0.8c0-0.3-0.3,0-0.5,0c-2.4,0.7-4.6,4.3-4.1,6.9c0.8-0.5,1.9-0.5,2.6-1.6
		c-0.4,0.1-0.7,0.1-0.9,0.2c-0.4,0.1-1,0.4-1.1-0.2c-0.2-0.7,0.5-0.5,0.9-0.6c0.8-0.3,1.8-0.2,2.3-1.1c-0.6,0.1-1.2,0.2-1.8,0.2
		c-0.3,0-0.7,0-0.7-0.3c0-0.5,0.4-0.4,0.7-0.4C400.4,373.5,401.3,373.4,402.2,372.9z"/>
	<path class="st3" d="M488,453.8c0.5,1.4,1.5,2.4,2.4,3.4c0.1,0.2,0.4,0.4,0.1,0.6c-0.3,0.3-0.4-0.1-0.6-0.2c-1.1-1-2.1-2-2.9-3.2
		c-0.4-0.6-0.8-0.7-1.5-0.4c1.3,1.5,2.6,3,3.9,4.5c0.1,0.1,0.3,0.1,0.4,0.1c1-0.1,1.9-0.1,3.1-0.2
		C491.1,456.8,490.1,454.7,488,453.8z"/>
	<path class="st3" d="M480.3,380.4c-0.3,0.5-0.6,0.6-0.9,0.7c-1,0.3-2.1,0.6-3.1,0.9c-0.4,0.1-0.9,0.1-0.7,0.7
		c0.2,0.6,0.6,0.3,1,0.2c1.4-0.4,2.7-0.8,4.1-1.1c0.8-0.1,0.7-0.4,0.5-0.9c-0.1-0.3-0.2-0.6-0.3-0.9c-0.1-0.8-0.5-1-1.3-0.8
		c-1.2,0.4-2.5,0.7-3.7,1c-0.3,0.1-1.1,0-0.8,0.7c0.2,0.6,0.7,0.2,1.1,0.2C477.5,380.9,478.7,380.2,480.3,380.4z"/>
	<path class="st3" d="M406,455.9c-1.2-1.6-2.3-3-3.3-4.5c-0.6-0.9-1.3-1.1-2.4-0.9c0.9,1.4,1.9,2.7,2.7,4.1
		C403.6,455.7,404.4,456.4,406,455.9z"/>
	<path class="st3" d="M415.5,451.5c1.3,1.6,2.6,3,3.8,4.6c0.7,1,1.5,1.2,2.7,1c-1.4-1.6-2.7-3.1-3.9-4.7
		C417.4,451.6,416.7,451.2,415.5,451.5z"/>
	<path class="st3" d="M383,453.7c-1.2-1.6-2.5-3.2-3.7-4.8c-0.6-0.8-1.3-1.1-2.3-0.8c0.9,1.2,1.8,2.4,2.5,3.6
		C380.3,452.9,381.2,453.9,383,453.7z"/>
	<path class="st3" d="M388.2,449.4c1.2,1.5,2.4,3,3.4,4.6c0.6,0.9,1.4,1.3,2.6,1c-1.1-1.5-2.3-2.8-3.3-4.3
		C390.3,449.7,389.5,449.2,388.2,449.4z"/>
	<path class="st3" d="M385.5,449c1.1,1.6,2.2,3,3.1,4.5c0.7,1.1,1.6,1.2,2.8,1.3c-1.3-1.7-2.6-3.3-3.7-4.9
		C387.2,449.2,386.6,448.9,385.5,449z"/>
	<path class="st3" d="M424.7,360.2c1.3-1.2,2.8-2.2,4.2-3.4c0.3-0.2,0.7-0.6,0.9-0.4c0.4,0.4-0.2,0.6-0.4,0.8
		c-1.1,1.2-2.4,2-3.4,3.3c0.3,0.1,0.7,0.2,0.9,0c1-1,2.1-1.9,3.3-2.6c0.2-0.1,0.2-0.3,0.2-0.4c0-0.9,0.1-1.9-0.6-2.6
		C427.9,356.5,426.1,358.2,424.7,360.2z"/>
	<path class="st3" d="M450,458.6c0-0.3-0.2-0.5-0.4-0.7c-1.1-1.4-2.2-2.7-3.3-4.1c-0.8-1-0.7-1-2-0.7c1.1,1.5,2.2,2.9,3.2,4.5
		C448.2,458.5,449,458.8,450,458.6z"/>
	<path class="st3" d="M388.6,454.3c-1.3-1.6-2.5-3.1-3.6-4.7c-0.6-0.8-1.2-1.1-2.2-0.9c1,1.5,2.1,2.8,3,4.2
		C386.5,454,387.2,454.6,388.6,454.3z"/>
	<path class="st3" d="M402.9,455.7c-1-1.5-2.2-2.9-3-4.5c-0.5-1.1-1.1-1.1-2.1-0.9c0.9,1.5,1.8,2.7,2.5,4.1
		C400.8,455.6,401.6,456,402.9,455.7z"/>
	<path class="st3" d="M423,452c1.3,1.6,2.6,3,3.6,4.6c0.7,1.1,1.6,1.1,2.8,1.2c-1.8-2-3.4-3.8-5-5.7C424,451.8,423.6,451.9,423,452z
		"/>
	<path class="st3" d="M454.6,374.5c-0.3,1.6-0.6,3.2-0.9,4.9c1.7,0.2,3.4,0.6,5,1.7c-0.2-0.9-0.5-1.6-1.1-2.1
		c-0.3,0.3,0.1,0.8-0.5,0.9c-0.3-0.8,0.2-1.7-0.5-2.5c-0.2,0.6,0.1,1.3-0.4,2.1c-0.6-1.3-0.4-2.4-0.5-3.7c-0.7,1-0.2,2.2-1.2,3.3
		C454.4,377.3,454.9,375.9,454.6,374.5z"/>
	<path class="st3" d="M412.9,451.2c0.1,0.5,0.4,0.8,0.7,1.2c1,1.2,2.2,2.4,3.1,3.7c0.6,0.8,1.2,1,2.2,0.8c-1.5-1.8-3-3.6-4.5-5.3
		C414.1,451.1,413.5,451.2,412.9,451.2z"/>
	<path class="st3" d="M430.8,452.5c1.2,1.9,2.7,3.4,4,5c0.5,0.7,1.1,0.9,2.1,0.6c-1.5-1.7-2.9-3.3-4.3-5
		C432.1,452.5,431.7,452.3,430.8,452.5z"/>
	<path class="st3" d="M457.9,370.3c0-0.8,0-1.4,0-2c0-0.2,0.3-0.6-0.2-0.7c-0.6-0.1-0.3,0.4-0.3,0.7c-0.2,0.6,0.4,1.4-0.7,1.9
		c0.3-0.9,0.2-1.6,0.2-2.4c0-0.2,0.1-0.5-0.3-0.6c-0.3,0-0.4,0.2-0.4,0.5c-0.1,0.8-0.3,1.6-0.4,2.4c-0.1,0.5,0.2,0.5,0.5,0.6
		c1.7,0.3,3.5,0.6,5.2,0.9c-1.2-0.9-3.2-1.1-2.6-3.5C458.5,368.8,458.9,369.7,457.9,370.3z"/>
	<path class="st3" d="M435.6,452.8c1.2,1.6,2.5,3.1,3.6,4.8c0.5,0.8,1.1,1.1,2,0.8c-1.3-1.7-2.6-3.4-3.8-5.1
		C436.9,452.6,436.4,452.5,435.6,452.8z"/>
	<path class="st3" d="M349,443.6c0.8,1.2,1.5,2.3,2.2,3.4c0.9,1.3,1.1,1.4,3,1.5C352.4,446.9,352.2,443.9,349,443.6z"/>
	<path class="st3" d="M312.6,435.5c-0.5-1.4-1.1-2.6-1.5-3.9c-0.4-1.3-1.4-1.8-2.8-2.2c1,2,1.9,3.7,2.8,5.4
		C311.4,435.3,311.9,435.4,312.6,435.5z"/>
	<path class="st3" d="M414.3,456.7c-1.4-2-3.1-3.6-4.5-5.4c-0.3-0.4-0.8-0.4-1.5-0.3c1.5,1.8,2.9,3.5,4.3,5.2
		C413,456.8,413.6,456.8,414.3,456.7z"/>
	<path class="st3" d="M418.5,451.8c1.5,1.9,2.9,3.7,4.5,5.4c0.4,0.4,0.9,0.4,1.4,0.3c-1.5-1.8-2.9-3.6-4.3-5.3
		C419.7,451.6,419.2,451.6,418.5,451.8z"/>
	<path class="st3" d="M453.8,374.6c-0.7,1.3-0.7,2.8-1.7,4.4c-0.1-1.7,0.7-2.9,0.6-4.4c-0.7,0.8-1.2,1.5-1.8,2
		c-0.9,0.8-0.5,1.4,0.2,2c0.4,0.3,0.9,0.5,1.4,0.7c0.5,0.1,0.6,0,0.6-0.4C453.4,377.4,453.6,376,453.8,374.6z"/>
	<path class="st3" d="M462.6,371c0.3-1.1,0.2-2.1-0.6-3c-0.8-0.9-1.6-1.8-2.3-2.8c-0.7-1.1-1.7-0.9-2.3,0.3c0.7-0.2,1.3-0.5,1.9-0.2
		c-0.4,0.8-1.3,0.5-1.7,1.1c0.4,0.4,0.8,0.3,1.2,0.1c0.4-0.2,0.8-0.2,1.2,0c0,0.5-0.5,0.5-0.5,0.8c0.1,0.1,0.2,0.1,0.2,0.1
		c1.3-0.3,1.3,1.7,2.5,1.5c0,0,0.1,0.3,0.1,0.3C461.5,370.1,462.4,370.5,462.6,371z"/>
	<path class="st3" d="M424.1,383.7c-0.8-3.3-4.2-5.9-7.6-5.9C419.5,379.1,421.9,381.2,424.1,383.7z"/>
	<path class="st3" d="M431.8,457.9c-1.5-1.7-3.1-3.4-4.5-5.1c-0.5-0.6-1-0.7-1.8-0.6c1.5,1.7,2.9,3.3,4.2,5
		C430.3,457.9,430.8,458.1,431.8,457.9z"/>
	<path class="st3" d="M107.5,436.3c-0.2,2.3,1.3,4,2.1,6c0.4,0.9,1.2,0.9,2.1,1.3C110,441.2,108.9,438.7,107.5,436.3z"/>
	<path class="st3" d="M469.9,453.7c1.2,1.5,2.5,2.8,3.5,4.2c0.6,0.9,1.3,1,2.3,0.7c-1.4-1.5-2.8-3-4.2-4.5
		C471.1,453.6,470.6,453.5,469.9,453.7z"/>
	<path class="st3" d="M434.4,458.1c-1.6-1.9-3.3-3.5-4.6-5.4c-0.4-0.5-0.9-0.4-1.5-0.2c1.4,1.8,2.9,3.5,4.4,5.1
		C433.1,458.1,433.6,458.2,434.4,458.1z"/>
	<path class="st3" d="M364.1,450.7c-1.5-1.7-2.8-3.3-4.2-4.7c-0.4-0.5-0.5-0.4-1.6-0.2C360.4,447.3,360.6,450.4,364.1,450.7z"/>
	<path class="st3" d="M446.9,453.1c1.1,1.8,2.5,3.4,3.8,5.1c0.4,0.5,1,0.5,1.7,0.3c-1.5-1.8-2.9-3.5-4.3-5.2
		C447.8,453,447.4,453.1,446.9,453.1z"/>
	<path class="st3" d="M338.5,444.6c-0.9-1.4-1.7-2.6-2.5-3.8c-0.6-0.9-0.8-1-2.3-0.9C335.4,441.4,335.5,444.2,338.5,444.6z"/>
	<path class="st3" d="M406.2,383.4c-0.9,1.6-1.2,3.2-1,5c2.2-1.9,2.7-4.4,2.5-7.2c-0.9,1.5-0.5,3.3-1.3,5
		C405.9,385.1,406.7,384.3,406.2,383.4z"/>
	<path class="st3" d="M380.2,448.3c1.3,1.8,2.6,3.6,3.9,5.3c0.3,0.5,0.9,0.5,1.5,0.4c-1.3-1.8-2.5-3.5-3.8-5.2
		C381.4,448.3,380.9,448.2,380.2,448.3z"/>
	<path class="st3" d="M374.1,452.4c-1.3-1.7-2.5-3.2-3.5-4.7c-0.4-0.6-0.9-0.7-1.7-0.6c1.1,1.4,2.2,2.7,3,4.2
		C372.4,452.1,373,452.4,374.1,452.4z"/>
	<path class="st3" d="M478.1,458.6c-1.6-1.6-3.1-3.2-4.6-4.8c-0.3-0.3-0.7-0.2-1.1-0.1c1.2,1.6,2.4,2.9,3.6,4.3
		C476.5,458.6,477.1,458.9,478.1,458.6z"/>
	<path class="st3" d="M366.2,446.6c0.1,0.5,0.4,0.7,0.6,1.1c0.9,1.1,2,2.1,2.7,3.4c0.5,0.8,0.9,0.9,1.7,0.8
		c-1.2-1.6-2.3-3.1-3.5-4.6C367.4,446.6,366.9,446.5,366.2,446.6z"/>
	<path class="st3" d="M130.9,441.4c-0.2-2.6-0.3-5.2-2.8-6.8C128.8,436.9,129.6,439.3,130.9,441.4z"/>
	<path class="st3" d="M405.7,379.3c-1.9,1-4.2,1.4-5.7,3.4c2.2-0.1,4.1-0.3,4.9-2.6C405.1,379.7,405.5,379.5,405.7,379.3z"/>
	<path class="st3" d="M457.2,371.8c0.7,0.6,1.3,1,1.7,1.6c0.8,1.5,1.9,1.4,3.1,0.7c0.2-0.1,0.3-0.1,0.5-0.2
		C461.1,372.4,459.2,372.1,457.2,371.8z"/>
	<path class="st3" d="M439.5,380.2c-0.1-0.5-0.2-0.9-0.3-1.2c-0.6-1.5-1.3-1.7-2.5-0.8c-0.5,0.4-1.1,0.7-1.8,1.1
		C436.5,379.6,438,379.9,439.5,380.2z"/>
	<path class="st3" d="M361.1,445.9c1.2,1.5,2.3,2.8,3.3,4.2c0.6,0.8,1.2,1.1,2.2,1.1c-1.3-1.6-2.6-3.2-3.9-4.7
		C362.3,446,361.8,446,361.1,445.9z"/>
	<path class="st3" d="M438.6,458.6c0.1-0.1,0.3-0.2,0.4-0.4c-1.4-1.7-2.8-3.4-4.1-5.1c-0.4-0.5-0.7-0.6-1.5-0.4
		C435.2,454.7,436.5,457,438.6,458.6z"/>
	<path class="st3" d="M426.8,457.6c-1.7-1.8-3.2-3.7-4.7-5.5c-0.3-0.3-0.6-0.4-1-0.1c1.2,1.6,2.5,3.1,3.6,4.7
		C425.2,457.5,425.7,457.8,426.8,457.6z"/>
	<path class="st3" d="M410.8,451.2c1.3,1.6,2.5,3.1,3.7,4.7c0.5,0.7,1,1.1,2,0.9c-1.6-1.9-3.1-3.7-4.6-5.5
		C411.6,451,411.2,451.1,410.8,451.2z"/>
	<path class="st3" d="M393.8,449.7c-0.1,0.1-0.2,0.2-0.3,0.3c1,1.5,2.1,3,3,4.5c0.5,0.7,1.1,1,2.1,0.9
		C396.9,453.5,395.7,451.3,393.8,449.7z"/>
	<path class="st3" d="M371.4,447.3c1,1.5,2,2.9,3,4.3c0.5,0.7,1,1.2,2.1,1c-1.4-1.8-2.7-3.5-4-5.2
		C372.2,447.1,371.8,447.2,371.4,447.3z"/>
	<path class="st3" d="M320.8,435.1c1.1,1.7,1.1,4.3,3.9,5.1c-0.8-1.4-1.7-2.5-2.1-3.8C322.3,435.4,321.6,435.3,320.8,435.1z"/>
	<path class="st3" d="M411.6,456.5c-1.4-2.3-4.4-5.6-5.2-5.6c1.3,1.8,2.6,3.5,3.8,5.3C410.6,456.7,411.1,456.5,411.6,456.5z"/>
	<path class="st3" d="M364.2,446.2c-0.1,0.1-0.2,0.2-0.3,0.3c1,1.3,2.1,2.6,3,3.9c0.6,0.9,1.4,1.2,2.6,1.2
		C367.4,449.9,366.2,447.6,364.2,446.2z"/>
	<path class="st3" d="M313.7,432c1.2,1.6,0.3,4.6,3.2,5.1C315.7,435.6,315.9,433.1,313.7,432z"/>
	<path class="st3" d="M400.1,455.5c-0.6-1.7-1.8-3.1-2.7-4.6c-0.5-0.8-0.9-1.1-1.9-0.8C397,451.9,398.2,454,400.1,455.5z"/>
	<path class="st3" d="M379.3,453.2c-1.1-1.6-2.4-3.1-3.4-4.8c-0.4-0.7-0.7-0.9-1.5-0.8c1.1,1.8,2.3,3.5,3.6,5.1
		C378.4,453.2,378.8,453.4,379.3,453.2z"/>
	<path class="st3" d="M303.7,426.7c1.3,2.2,2.4,4.3,3.6,6.4c0.3,0.5,0.8,0.6,1.4,0.7c-0.7-1.1-1.3-2-1.8-3c-0.6-1-1.2-2-1.7-3
		C304.9,427.3,304.5,427,303.7,426.7z"/>
	<path class="st3" d="M354.2,444.9c1.4,3.1,2.6,4.5,4.2,4.7C357.2,447.2,355.1,444.9,354.2,444.9z"/>
	<path class="st3" d="M347.1,446.8c-1.2-1.6-1.9-3.7-3.9-4.6C344.2,444.1,344.7,446.3,347.1,446.8z"/>
	<path class="st3" d="M336.8,440.4c1.1,2.8,2.7,4.7,4,4.5C339.3,443.6,339.3,441,336.8,440.4z"/>
	<path class="st3" d="M405,450.5c-0.1,0.1-0.2,0.2-0.3,0.3c1.2,1.7,2.4,3.4,3.7,5.1c0.3,0.4,0.7,0.6,1.4,0.4
		C408,454.4,406.9,452.2,405,450.5z"/>
	<path class="st3" d="M476.6,386c1.6-0.9,3.2-1.1,4.9-1.5c0.3-0.1,0.7,0.1,0.6-0.5c-0.1-0.6-0.5-0.3-0.8-0.2
		c-1.4,0.3-2.7,0.7-4.1,0.9C476.4,384.9,476,385.2,476.6,386z"/>
	<path class="st3" d="M396,455.2c-1.2-1.8-2.6-3.3-3.6-5.2c-0.2-0.4-0.7-0.4-1.1-0.2c1.1,1.6,2.3,3.1,3.4,4.6
		c0.1,0.1,0.2,0.3,0.3,0.4C395.1,455.2,395.5,455.3,396,455.2z"/>
	<path class="st3" d="M314.4,436.2c-0.6-2.9-1.7-4.9-2.7-5.1c0.5,1.4,1,2.8,1.5,4.2C313.4,435.9,313.7,436.3,314.4,436.2z"/>
	<path class="st3" d="M328.8,441.6c-1.2-1.8-2-3.5-3.4-4.8c0.3,1.1,0.9,2.1,1.2,3.1C326.8,441.1,327.5,441.4,328.8,441.6z"/>
	<path class="st3" d="M356.6,445.1c0.5,1.5,1.6,2.6,2.3,3.9c0.4,0.7,0.8,1.1,1.8,0.9C359.5,448.2,358.2,446.5,356.6,445.1z"/>
	<path class="st3" d="M399.3,377.4c-2.5,1.1-2.2,0.7-1.5,2.9c0.2,0.5,0.4,1,0.7,1.8C398.6,380.4,399,379,399.3,377.4z"/>
	<path class="st3" d="M333.7,443.2c-1.4-3-2.5-4.3-3.7-4.7C331.2,440.3,331.8,442.3,333.7,443.2z"/>
	<path class="st3" d="M303.9,431.7c0.1-0.1,0.2-0.1,0.3-0.2c-0.8-1.9-1.7-3.7-2.4-5.6c-0.2-0.7-0.5-1.1-1.4-1.5
		C301.6,427,302.5,429.5,303.9,431.7z"/>
	<path class="st3" d="M445.3,374.2c-2.2-1.4-3.4-1.3-5.4,0.8C441.8,374.5,443.5,374.3,445.3,374.2z"/>
	<path class="st3" d="M407.8,456.2c-1.5-1.9-2.9-3.8-4.4-5.7c-0.1,0.1-0.2,0.2-0.3,0.2c1.2,1.7,2.4,3.4,3.5,5.2
		C406.9,456.3,407.3,456.3,407.8,456.2z"/>
	<path class="st3" d="M342.8,445.7c-0.5-0.9-1-1.7-1.5-2.4c-0.5-0.7-0.6-1.8-1.9-2.1c0.4,1.3,1.3,2.2,1.6,3.3
		C341.3,445.4,341.8,445.7,342.8,445.7z"/>
	<path class="st3" d="M453.9,371c1.7-0.5,1.4-1.9,1.6-3.1c0-0.3,0.3-0.7-0.1-0.8c-0.4-0.1-0.8,0.1-0.9,0.6
		C454.3,368.8,454.1,369.8,453.9,371z"/>
	<path class="st3" d="M310,434.5c-0.3-1.9-2.8-6-3.7-6.2C307.4,430.5,308.7,432.5,310,434.5z"/>
	<path class="st3" d="M345.5,442.8c1.2,1.6,1.6,3.7,3.6,4.6C347.9,445.8,347.2,443.9,345.5,442.8z"/>
	<path class="st3" d="M447.4,458.4c-1.5-1.9-2.9-3.7-4.3-5.5c-0.1,0.1-0.2,0.1-0.3,0.2c1.2,1.6,2.3,3.3,3.5,4.9
		C446.5,458.4,446.8,458.6,447.4,458.4z"/>
	<path class="st3" d="M352.2,444.4c0.9,1.4,1.8,2.9,2.7,4.3c0.2,0.3,0.6,0.3,1,0C354.7,447.2,353.9,445.5,352.2,444.4z"/>
	<path class="st3" d="M350.8,447.8c-1.2-1.5-1.7-3.5-3.4-4.5C348.4,444.8,349,446.8,350.8,447.8z"/>
	<path class="st3" d="M326.1,440.8c-1.2-3.4-1.9-4.6-2.9-4.7C324.1,437.8,324.8,439.5,326.1,440.8z"/>
	<path class="st3" d="M344.7,446.2c-1.3-1.3-1.7-3.4-3.3-4.5C342.3,443.3,342.6,445.5,344.7,446.2z"/>
	<path class="st3" d="M476,383.9c0,0.1,0.1,0.2,0.1,0.3c1.8-0.3,3.5-1,5.4-0.9c0.3,0,0.4-0.1,0.3-0.4c-0.1-0.3-0.1-0.7-0.6-0.5
		C479.4,382.9,477.7,383.4,476,383.9z"/>
	<path class="st3" d="M318.4,438c0.1-0.1,0.2-0.2,0.4-0.2c-0.3-0.6-0.5-1.2-0.8-1.7c-0.3-0.6-0.6-1.2-1-1.7c-0.3-0.4,0.3-1.4-1-1.2
		C316.8,434.8,317,436.7,318.4,438z"/>
	<path class="st3" d="M425.6,357.6c1.1-1.1,2.2-2.1,3.4-3.2c0.3-0.3,0.3-0.6,0.1-0.8c-0.3-0.3-0.5,0-0.7,0.2
		C427.4,355.1,426.2,356.2,425.6,357.6z"/>
	<path class="st3" d="M414,381.6c-0.1-1.4-0.2-2.6-0.4-3.7c-0.5,0-1.1,0.1-1,0.5C412.7,379.4,412.7,380.6,414,381.6z"/>
	<path class="st3" d="M319.3,434.2c-0.1,0.1-0.2,0.1-0.3,0.2c0.9,2.8,2,4.6,2.8,4.6C321,437.4,320.2,435.8,319.3,434.2z"/>
	<path class="st3" d="M449.6,379c-0.2-1.5-1-1.7-2.1-1.6c-0.2,0-0.5,0-0.5,0.1c-0.2,0.2,0.1,0.4,0.2,0.6
		C447.7,379,448.7,378.7,449.6,379z"/>
	<path class="st3" d="M430.2,358.4c-0.7,0.6-1.3,1.1-1.9,1.6c-0.2,0.1-0.5,0.3-0.3,0.6c0.1,0.2,0.4,0.2,0.6,0.3
		C429.7,360.9,430.3,360,430.2,358.4z"/>
	<path class="st3" d="M328.8,438c1.4,3.5,2.1,4.4,3.1,4.5C330.7,441.1,330,439.3,328.8,438z"/>
	<path class="st3" d="M426.3,354.9c0.5-1.1,2.6-1.4,1.9-3.5C427.5,352.8,426,353.3,426.3,354.9z"/>
	<path class="st3" d="M409.3,383.2c0.2,0,0.3-0.1,0.4-0.3c0.3-0.3,0.4-3.2,0.2-3.5c-0.1-0.1-0.2-0.3-0.4-0.2
		c-0.2,0.1-0.2,0.3-0.2,0.5C409.3,380.9,409.3,382,409.3,383.2z"/>
	<path class="st3" d="M303.6,428c-0.1,0.1-0.2,0.1-0.2,0.2c0.9,1.5,1,3.5,3,4.4C305.4,431.1,304.5,429.5,303.6,428z"/>
	<path class="st3" d="M394.8,360.6c-1.3,0.1-2.5-0.3-3.7,0.4C392.4,361.6,393.6,362.2,394.8,360.6z"/>
	<path class="st3" d="M295.8,424.8c-0.8-1.8-1.7-3.6-2.5-5.4C293.5,421.5,294.3,423.4,295.8,424.8z"/>
	<path class="st3" d="M449.9,383.9c-0.2,1,0.1,1.9,0.2,2.8c0,0.3,0.2,0.6,0.6,0.6c0.2,0,0.5,0.1,0.4-0.2
		C450.7,386,451.1,384.7,449.9,383.9z"/>
	<path class="st3" d="M447.1,375.7c-1.2-1.6-2.4-0.4-3.6-0.5C444.6,375.8,445.8,375.6,447.1,375.7z"/>
	<path class="st3" d="M415,378.2c-0.7,1-0.5,2.1-0.4,3.2c0,0.3,0.2,0.4,0.5,0.4c0.3,0.1,0.3-0.2,0.3-0.4
		C415.3,380.4,415.2,379.3,415,378.2z"/>
	<path class="st3" d="M397.4,359.8c-0.3-0.8-0.5-1.4-0.7-2.1c-0.1-0.2-0.1-0.5-0.5-0.3c-0.2,0.1-0.6,0.2-0.5,0.4
		C396.1,358.5,396,359.7,397.4,359.8z"/>
	<path class="st3" d="M107.4,439.7c-0.3,2.4-0.3,2.4,1.4,2.6C108.4,441.4,108,440.5,107.4,439.7z"/>
	<path class="st3" d="M420,359.5c-0.1,1-0.4,2,0.1,2.9c0.1,0.2,0.1,0.6,0.5,0.4c0.3-0.1,0.3-0.4,0.2-0.7
		C420.5,361.2,420.3,360.3,420,359.5z"/>
	<path class="st3" d="M329.7,442.1c0.1-0.1,0.2-0.2,0.3-0.2c-0.9-1.5-1.8-3-2.6-4.5c-0.1,0.1-0.2,0.1-0.3,0.2
		C327.9,439.1,328.8,440.6,329.7,442.1z"/>
	<path class="st3" d="M416.7,382.4c-0.1-1.1-0.2-2.1-0.3-3.1c0-0.1-0.1-0.3-0.2-0.4c0,0-0.3,0-0.3,0.1
		C415.5,379.5,416.1,382,416.7,382.4z"/>
	<path class="st3" d="M418.1,383c0.1-1-0.7-2-0.3-3c0.1-0.2-0.1-0.3-0.4-0.4c-0.3,0-0.3,0.2-0.3,0.4c0.1,0.8,0.1,1.7,0.3,2.5
		C417.5,382.8,417.7,383.1,418.1,383z"/>
	<path class="st3" d="M451.5,381.9c-0.6-0.7-1.3-1-2.2-0.7C449.5,383.1,450.8,381.7,451.5,381.9z"/>
	<path class="st3" d="M397.5,357.4c0,0.9,0.3,1.7,0.7,2.5c0.1,0.2,0.3,0.3,0.5,0.3c0.2,0,0.2-0.3,0.2-0.4
		C398.5,359,398.3,358,397.5,357.4z"/>
	<path class="st3" d="M398.8,362.3c-0.5,0.6-1.1,1-0.9,1.5c0.2,0.5,1,0.4,1.6,0.6C399.3,363.8,399.1,363.2,398.8,362.3z"/>
	<path class="st3" d="M398.6,361.5c-1,0.2-1.5,1-2.1,1.6c-0.2,0.2-0.2,0.3,0.1,0.5c0.3,0.2,0.5,0.1,0.7-0.2
		C397.6,362.8,398.1,362.1,398.6,361.5z"/>
	<path class="st3" d="M430.6,380.9c-1.7,0.9-2.6,2-3.2,3.4C428.4,383.3,429.4,382.3,430.6,380.9z"/>
	<path class="st3" d="M408.3,384.3c0.5-1.3,0.1-2.8,0.3-4.2C408.3,381.5,408.4,382.9,408.3,384.3z"/>
	<path class="st3" d="M453.5,387.9c-0.5-0.9-1.1-1.6-1.9-2.1C451.5,387.1,452.3,387.6,453.5,387.9z"/>
	<path class="st3" d="M397.8,360.8c-1.4,0.4-2,1.2-2.7,1.9c-0.2,0.2-0.1,0.3,0.1,0.4c0.1,0.1,0.3,0.2,0.4,0.1
		C396.1,362.3,396.9,361.7,397.8,360.8z"/>
	<path class="st3" d="M440.2,377.4c0-0.6,0.5-1.3-0.4-1.7c-0.3-0.1-0.5,0.1-0.6,0.4C438.9,377.1,439.9,377,440.2,377.4z"/>
	<path class="st3" d="M453.5,386.3c-0.2-2-0.3-2.1-1.7-1.6C452.3,385.2,452.8,385.7,453.5,386.3z"/>
	<path class="st3" d="M405.3,383.2c0.6-0.9,1.2-1.9,1.9-3C405.8,381,405.4,382,405.3,383.2z"/>
	<path class="st3" d="M296.4,423.9c0.2,1.5,0.9,2.9,1.6,3.4C297.5,426.1,297,425,296.4,423.9z"/>
	<path class="st3" d="M423.2,384c-0.1,0-0.1,0.1-0.2,0.1c0.1,0.4,0.3,0.9,0.4,1.4c0.1,0.4,0.2,0.6,0.6,0.5c0.3-0.1,0.3-0.5,0.2-0.7
		C423.9,384.8,423.5,384.4,423.2,384z"/>
	<path class="st3" d="M394.4,359.8c-0.5-1.2-0.7-1.2-1.8,0C393.2,359.8,393.8,359.8,394.4,359.8z"/>
	<path class="st3" d="M453.6,369.6c0.2-0.8,0.3-1.3,0.4-1.9c0-0.3,0-0.5-0.3-0.5c-0.3,0-0.5,0.1-0.4,0.4
		C453.3,368.2,453.1,368.8,453.6,369.6z"/>
	<path class="st3" d="M419.2,362.2c-0.2,0.6-0.9,0.7-0.6,1.3c0.1,0.2,0.5,0.5,0.8,0.3C420.1,363.3,419.5,362.9,419.2,362.2z"/>
	<path class="st3" d="M335,443.6c0.1-0.1,0.2-0.1,0.3-0.2c-0.6-0.9-1.2-1.8-1.8-2.7C333.6,442,334.4,442.7,335,443.6z"/>
	<path class="st3" d="M426.9,351.4c1.1-0.6,1.1-1.3,0.6-2.4C427.3,349.9,427.1,350.6,426.9,351.4z"/>
	<path class="st3" d="M449.7,380.3c0.2-1-0.5-0.8-1-0.8c-0.2,0-0.5,0.1-0.4,0.3C448.5,380.5,449.1,380.4,449.7,380.3z"/>
	<path class="st2" d="M150.3,398.5c-0.7-0.1-1.4,0.2-2.1-0.2c-0.3-0.1-0.5-0.3-0.3-0.6c0.1-0.2,0.3-0.3,0.6-0.2
		c2.5,0.5,5-0.2,7.5-0.4c3.5-0.3,6.9-0.8,10.4-1.2c3.6-0.4,7.2-0.8,10.8-1.2c3.4-0.4,6.8-0.7,10.2-1.1c4.6-0.5,9.2-1.1,13.8-1.7
		c5.1-0.7,10.2-1.4,15.3-2.2c7.8-1.1,15.5-2.4,23.2-3.8c7.8-1.4,15.5-2.9,23.3-3.7c4.1-0.4,8.2-0.6,12.3-0.8
		c6.4-0.3,12.6-1.2,18.8-2.9c0.8-0.2,1.6-0.3,2.5-0.4c0.3-0.1,0.8,0,0.9,0.4c0.1,0.4-0.3,0.5-0.6,0.6c-3.8,1-7.5,2.2-11.4,2.7
		c-6.5,0.8-13,1-19.5,1.6c-7.2,0.7-14.2,1.9-21.3,3.2c-7.7,1.4-15.4,2.7-23.1,3.8c-6.7,1-13.3,1.9-20,2.8c-4.9,0.6-9.9,1.1-14.8,1.6
		c-6,0.7-12.1,1.4-18.1,2c-5.1,0.6-10.2,1.1-15.2,1.6C152.2,398.4,151.3,398.6,150.3,398.5z"/>
	<path class="st2" d="M388.7,367c0.2,0.6-0.1,0.8-0.7,0.8c-2,0.2-3.9,0.4-5.9,0.6c-3.8,0.4-7.7,0.7-11.5,1
		c-4.1,0.3-8.2,0.6-12.4,0.8c-6.8,0.3-13.6,0.5-20.4,1c-5.5,0.4-11.1,0.7-16.6,1.5c-4.5,0.6-8.9,1.5-13.3,2.4
		c-1.3,0.3-2.8,0-4.1,0.6c-0.3,0.1-0.5-0.1-0.5-0.3c0-0.4,0.3-0.5,0.6-0.6c1.7-0.2,3.4-0.4,5-0.7c5.3-1.1,10.7-2.3,16.1-2.8
		c4.4-0.4,8.8-0.9,13.2-1.2c5.3-0.4,10.5-0.7,15.8-0.9c3.9-0.2,7.9-0.3,11.8-0.5c4.2-0.3,8.4-0.7,12.6-1
		C381.8,367.4,385.3,367,388.7,367C388.7,367,388.7,367,388.7,367z"/>
	<path class="st2" d="M86.2,326c0,0.2,0,0.4-0.2,0.4c-0.2,0-0.4-0.1-0.5-0.3c-0.5-0.8-1-1.5-1.4-2.3c-1.3-2.7-2.9-5.3-4.6-7.7
		c-2.8-3.9-4.5-8.4-7-12.3c-3.3-5.2-6.2-10.8-9.9-15.8c-1.1-1.6-2.8-2.4-4.5-3.2c-1-0.5-2.1-1-3.2-1.5c-0.3-0.1-0.6-0.2-0.4-0.6
		c0.1-0.3,0.4-0.2,0.6-0.1c2.7,1.5,5.8,2.4,7.9,4.9c1.7,2.1,3,4.3,4.4,6.6c0.9,1.4,1.6,2.9,2.6,4.3c2.6,3.8,4.8,7.8,7,11.9
		c2.1,4.1,5.1,7.8,7.2,12c0.6,1.1,1.2,2.2,1.8,3.3C86,325.7,86.1,325.8,86.2,326z"/>
	<path class="st4" d="M100.7,349.6c-1.5,1-2.7,1.8-4,2.6c-21.7,13.8-42.9,28.3-63.6,43.6c-2.4,1.8-4.8,3.6-7.2,5.3
		c-0.3,0.2-0.5,0.5-0.8,0.2c-0.3-0.4,0.2-0.6,0.4-0.8c21.8-16.4,44.2-31.9,67.3-46.5c2.1-1.4,4.3-2.7,6.5-4
		C99.5,349.7,99.8,349.4,100.7,349.6z"/>
	<path class="st4" d="M27.5,391.2c22-16.2,44.8-31.1,67.7-45.8c-0.3,0.9-1.1,1.3-1.8,1.8c-6.2,4.1-12.3,8.3-18.5,12.3
		c-15.1,9.9-30,20.2-44.8,30.6C28.6,391.1,28.5,391.1,27.5,391.2z"/>
	<path class="st4" d="M28.1,384.7c21.5-13.9,42.5-28.5,64.2-42C71,357,50,371.6,28.1,384.7z"/>
	<path class="st4" d="M86,341.1c-0.2,0.9-0.8,1.1-1.3,1.4c-10.8,6.7-21.5,13.6-32.1,20.6c-7.9,5.2-15.5,10.7-23.2,16.2
		c-0.6,0.4-1.3,0.8-1.9,1.3c-0.2,0.1-0.5,0.2-0.6-0.1c-0.2-0.3,0.1-0.4,0.3-0.5c13.8-10,27.8-19.6,42.3-28.6
		c5.4-3.4,10.8-6.7,16.1-10.1C85.6,341.2,85.7,341.2,86,341.1z"/>
	<path class="st4" d="M97,377.5c0,0.5-0.4,0.5-0.7,0.7c-7.6,4.3-14.9,9-22.2,13.8c-9.3,6-18.5,12.2-27.5,18.5
		c-0.3,0.2-0.6,0.7-1,0.2c-0.4-0.6,0.2-0.8,0.6-1c11.5-7.8,22.9-15.7,34.8-23c4.8-3,9.6-6,14.6-8.8c0.4-0.2,0.7-0.3,1.1-0.5
		C96.8,377.2,96.9,377.3,97,377.5z"/>
	<path class="st4" d="M92.4,360.7c-0.6,0.8-1.4,1.1-2.1,1.6c-16.5,10.9-32.9,21.9-49,33.4c-2.5,1.8-5,3.7-7.6,5.5
		c-0.2,0.2-0.6,0.7-0.9,0.1c-0.2-0.4,0.3-0.5,0.5-0.7c16.3-12.3,33.4-23.5,50.3-34.8c2.5-1.7,5-3.2,7.5-4.9
		C91.6,360.8,91.9,360.5,92.4,360.7z"/>
	<path class="st4" d="M79.3,336c-0.1,0.4-0.5,0.4-0.8,0.6c-9.5,5.2-18.6,11-27.7,16.8c-7.9,5.1-15.5,10.7-23.2,16.1
		c-0.4,0.3-0.9,1.1-1.4,0.5c-0.3-0.4,0.6-0.7,1-1c10.4-7.6,20.9-15.1,31.9-21.8c6.1-3.7,12.2-7.4,18.4-10.8c0.4-0.2,0.8-0.4,1.2-0.6
		C79,335.7,79.3,335.7,79.3,336z"/>
	<path class="st4" d="M25.4,376.9c2.3-4.6,51.4-37.8,56-37.7c-10.3,5.3-19.5,11.7-28.8,17.9C43.2,363.3,34.3,370.1,25.4,376.9z"/>
	<path class="st4" d="M89.2,372.8c-1,1.1-2.2,1.9-3.4,2.7C71.2,385,57,395.2,42.4,404.8c-0.1,0.1-0.3,0.2-0.4,0.3
		c-0.2,0.1-0.4,0.3-0.6,0c-0.2-0.3,0.1-0.4,0.3-0.6c1.4-0.9,2.8-1.8,4.1-2.8c13.3-9,26.4-18.2,39.8-26.9c1.1-0.7,2.2-1.5,3.3-2.3
		C89,372.6,89.1,372.7,89.2,372.8z"/>
	<path class="st4" d="M85.5,368.5c0,0.4-0.4,0.5-0.7,0.6c-6.8,4.7-13.7,9.4-20.5,14.1c-8.3,5.8-16.5,11.7-24.8,17.5
		c-0.1,0.1-0.2,0.2-0.3,0.2c-0.3,0.2-0.5,0.5-0.8,0.1c-0.2-0.3,0.2-0.5,0.4-0.6c1-0.7,2.1-1.4,3.1-2.2c13.5-9.7,27-19.3,40.8-28.6
		c0.7-0.5,1.5-1,2.2-1.5C85.2,368.2,85.4,368.1,85.5,368.5z"/>
	<path class="st4" d="M90,386.2c0.1,0.7-0.4,0.8-0.7,0.9c-12.1,6.9-23.5,14.7-34.7,23c-1,0.7-2,1.5-3.1,2.2
		c-0.2,0.2-0.5,0.6-0.8,0.2c-0.3-0.4,0.2-0.5,0.4-0.7c2.9-2.1,5.7-4.3,8.6-6.4c8.7-6.3,17.7-12.2,27.1-17.6
		C87.9,387.3,88.9,386.8,90,386.2z"/>
	<path class="st4" d="M26.9,359.6c1.4-3.6,39-27.1,43.5-27.2C55,340.2,40.6,349.1,26.9,359.6z"/>
	<path class="st4" d="M61.7,331c-0.8,0.7-1.8,1.1-2.6,1.5c-10,5.2-20,10.7-29.2,17.3c-0.7,0.5-1.3,1.1-2,1.6
		c-0.4,0.3-0.8,0.9-1.2,0.3c-0.4-0.5,0.3-0.8,0.6-1.1c2.1-1.4,4.1-2.9,6.2-4.3c8.8-5.6,17.9-10.6,27.2-15.3
		C60.9,331,61.2,330.7,61.7,331z"/>
	<path class="st4" d="M33.4,359.3c12.1-9.3,25.1-17.2,38.5-24.5L33.4,359.3z"/>
	<path class="st4" d="M26.8,355c11.8-9.2,24.6-16.7,38-23.4C51.8,338.8,39,346.5,26.8,355z"/>
	<path class="st4" d="M57.9,412.4c11.2-8.1,22.4-16.2,34.4-23C80.6,396.7,69.4,404.8,57.9,412.4z"/>
	<path class="st4" d="M54.7,328.8c-0.1,0.6-0.7,0.7-1.1,0.9c-6.4,3.3-12.7,6.9-18.9,10.6c-2.4,1.4-4.7,2.8-7,4.4
		c-0.2,0.2-0.6,0.7-0.9,0.3c-0.3-0.4,0.3-0.6,0.5-0.7c5.5-3.8,11.3-7,17.1-10.3c3.2-1.8,6.5-3.5,9.7-5.2
		C54.3,328.7,54.5,328.6,54.7,328.8z"/>
	<path class="st4" d="M56.9,330.3c-9.7,5.5-19.2,11.2-28.4,17.5C37.3,340.9,46.9,335.3,56.9,330.3z"/>
	<path class="st4" d="M26.1,341.5c7.4-5.3,15.4-9.7,23.7-13.5C41.8,332.3,33.8,336.8,26.1,341.5z"/>
	<path class="st4" d="M88.9,399.7c-1.5,1-3.1,2-4.6,3c-5.9,4-11.4,8.5-16.9,12.9c-0.3,0.3-0.8,1-1.2,0.6c-0.4-0.5,0.4-0.8,0.7-1
		c6.7-5.2,13.2-10.7,20.4-15.1C87.8,399.9,88.2,399.4,88.9,399.7z"/>
	<path class="st4" d="M92.6,405.9c-2,1.5-4,2.8-5.8,4.3c-3.7,3-7.5,5.8-11,9c-0.1,0.1-0.2,0.2-0.4,0.3c-0.2,0.2-0.5,0.3-0.8,0
		c-0.3-0.3,0.1-0.5,0.3-0.7c1-0.8,1.9-1.6,2.9-2.4c4.4-3.4,8.6-7.2,13.4-10.2C91.6,406,91.9,405.7,92.6,405.9z"/>
	<path class="st4" d="M88.5,404.3c-1.1,1.3-2.6,2.2-4,3.2c-4.8,3.5-9.4,7.3-14,11.1c-0.2,0.2-0.6,0.6-0.8,0.4
		c-0.4-0.4,0.1-0.6,0.4-0.8c5.5-4.4,11-8.9,16.7-13.1c0.5-0.3,0.9-0.7,1.4-1.1C88.3,404.1,88.4,404.2,88.5,404.3z"/>
	<path class="st4" d="M96.8,413.2c-1.6,1.2-3,2.2-4.4,3.3c-3.3,2.5-6.6,5-9.5,7.9c-0.1,0.1-0.2,0.2-0.3,0.3
		c-0.3,0.2-0.6,0.4-0.8,0.1c-0.4-0.4,0-0.6,0.2-0.8c1.1-1,2.3-2,3.4-2.9c3.2-2.6,6.4-5.1,9.9-7.4C95.6,413.4,95.9,413.1,96.8,413.2z
		"/>
	<path class="st4" d="M92.2,408.2c-0.6,1.2-1.7,1.7-2.5,2.4c-4.6,3.8-9.2,7.6-13.8,11.5c-0.2,0.2-0.5,0.5-0.7,0.2
		c-0.4-0.4,0.1-0.6,0.4-0.8c2.7-2.2,5.5-4.5,8.2-6.7c2.4-2,4.9-4,7.3-6C91.3,408.6,91.6,408.3,92.2,408.2z"/>
	<path class="st4" d="M83.3,400.2c-6.1,4.4-12.2,8.8-18.3,13.2c-0.1-0.1-0.2-0.3-0.3-0.4c6-4.6,12.2-8.8,18.3-13.2
		C83.1,399.9,83.2,400.1,83.3,400.2z"/>
	<path class="st4" d="M79.9,422.2c5.5-4.6,11.3-8.7,17-12.9c0.2,0.7-0.4,0.9-0.8,1.2c-3.5,2.6-6.9,5.2-10.4,7.8
		c-1.7,1.3-3.3,2.6-5,3.9C80.6,422.3,80.4,422.4,79.9,422.2z"/>
	<path class="st4" d="M42.8,327c-5.7,2.8-11.2,6-17.1,8.6C31.3,332.4,36.8,329.3,42.8,327z"/>
	<path class="st4" d="M44.2,328.4c-1.3,0.7-2.5,1.3-3.7,2c-4.2,2.3-8.3,4.6-12.3,7.3c-0.1,0.1-0.2,0.1-0.3,0.2
		c-0.2,0.1-0.4,0.4-0.6,0.1c-0.2-0.3,0.1-0.4,0.3-0.5c0.6-0.4,1.2-0.8,1.8-1.2c4.4-2.8,9-5.4,13.6-7.8
		C43.3,328.3,43.6,328,44.2,328.4z"/>
	<path class="st4" d="M98.6,415.8c0.2,0.5-0.1,0.6-0.3,0.8c-3.9,2.4-7.4,5.5-11,8.3c-0.3,0.3-0.8,0.9-1.1,0.5
		c-0.4-0.4,0.3-0.7,0.6-1c3.7-2.8,7.2-5.9,11.2-8.3C98.1,416,98.3,415.9,98.6,415.8z"/>
	<path class="st4" d="M38.6,326.2c-3.6,2-7.4,3.7-11,6C28.1,330.9,36.1,326.6,38.6,326.2z"/>
	<path class="st4" d="M91.2,426c2.4-2.8,5.6-4.6,8.4-6.9C97.1,421.8,93.9,423.6,91.2,426z"/>
	<path class="st4" d="M100.3,422.9c-0.4,1.1-1.5,1.4-2.3,2.1c-1.1,0.9-2.1,1.8-3.2,2.6c-0.2,0.2-0.5,0.5-0.8,0.1
		c-0.2-0.3-0.1-0.5,0.2-0.7C96.2,425.6,98.1,424.1,100.3,422.9z"/>
	<path class="st4" d="M26.4,329c3-1.1,5.9-2.2,8.9-3.4c0,0.1,0.1,0.2,0.1,0.3c-2.8,1.5-5.9,2.4-8.8,3.5
		C26.5,329.3,26.4,329.2,26.4,329z"/>
	<path class="st4" d="M103.9,424.5c-2.5,1.6-5.1,3.3-7.5,5.1C98.5,427.2,101,425.5,103.9,424.5z"/>
	<path class="st3" d="M449.3,306c-0.6,0.2-0.9-0.3-1.3-0.5c-4.9-3.1-9.2-7-13.3-11.1c-4.5-4.4-9.5-8-15.1-10.9
		c-0.3-0.2-1-0.2-0.7-0.8c0.4-0.7,0.7,0,1.1,0.2c4,2.3,8.1,4.4,11.5,7.5c2.7,2.4,5.3,4.9,8,7.3c2.8,2.6,5.8,4.9,8.8,7.2
		C448.7,305.2,449.2,305.4,449.3,306z"/>
	<path class="st2" d="M250.9,327.1c0.2,2-0.2,4.4-0.2,6.8c0,0.8-0.1,1.5,0.2,2.3c0.1,0.2,0,0.4-0.2,0.5c-0.3,0.1-0.4-0.2-0.4-0.4
		c-0.1-0.8-0.3-1.6-0.3-2.4c-0.2-2.8,0-5.7,0-8.5c0-8-1.7-15.4-5.8-22.2c-0.6-1-1-2-1.6-3c-0.7-1.3-1.4-2.7-2.6-3.6
		c-0.2-0.2-0.5-0.4-0.2-0.7c0.2-0.3,0.5-0.1,0.7,0.1c0.7,0.6,1.3,1.3,1.7,2c3.4,5.9,6.9,11.8,8.1,18.7
		C250.8,320.1,250.9,323.4,250.9,327.1z"/>
	<path class="st3" d="M350.9,329.8c-1.2-0.2-1.9-1-2.7-1.6c-5.5-4.5-9.5-10.1-12.2-16.7c-0.8-1.8-1.6-3.6-2.7-5.2
		c-0.1-0.2-0.6-0.5-0.2-0.8c0.4-0.2,0.5,0.3,0.7,0.5c1.2,1.7,2.2,3.6,3,5.5c3,6.8,7.4,12.5,13.2,17.2
		C350.2,329,350.8,329.1,350.9,329.8z"/>
	<path class="st2" d="M302.8,284c1,0.8,1.7,1.8,2.4,2.8c3.5,5,6.7,10.1,9.3,15.5c2.2,4.6,3.3,9.7,4.6,14.6c0.8,2.9,1.1,5.8,1.2,8.7
		c0.1,3.4-0.9,6.7-1.9,10c-1.2,3.9-2.3,7.9-3.7,11.8c-0.1,0.4-0.2,0.8-0.6,1.1c-0.2-0.5-0.1-0.8,0.1-1.3c1.4-4.2,2.6-8.5,3.9-12.7
		c1.8-5.8,2-11.7,0.3-17.5c-1.6-5.5-2.8-11.1-5.6-16.1c-2.7-4.8-5.2-9.6-8.3-14.1c-0.6-0.9-1.3-1.7-2-2.6
		C302.6,284.1,302.7,284.1,302.8,284z"/>
	<path class="st3" d="M388.6,313.5c-0.6,0-0.9-0.5-1.3-0.7c-4.4-2.4-7.1-6.6-10.1-10.4c-1.6-2-3.2-3.9-5-5.7
		c-1.1-1.2-2.2-2.4-3.3-3.6c-0.2-0.3-0.5-0.6,0-0.9c0.3-0.2,0.5,0,0.7,0.3c1.2,2.3,3.2,3.9,4.9,5.7c2.2,2.4,4,5,6,7.5
		c1.1,1.3,2.1,2.9,3.4,3.8c1.4,0.9,2.4,2.3,3.9,3.1C388.3,312.7,388.6,313,388.6,313.5z"/>
	<path class="st2" d="M209.6,358.3c-1-0.3-1.2-1-1.4-1.6c-0.9-2.4-1.6-4.8-2.1-7.3c-0.9-4-2.2-7.7-4-11.4c-1.9-3.7-3.6-7.6-5.2-11.5
		c-2.3-5.7-6.1-10-11-13.5c-1.5-1.1-2.8-2.5-4.3-3.6c-2.9-2.1-6.1-3.6-9.5-4.4c-0.4-0.1-0.8-0.1-1.1-0.6c0.5-0.4,0.9-0.2,1.4-0.1
		c5,1.5,9.4,4,13.2,7.7c1.4,1.4,3.1,2.5,4.7,3.8c2.2,1.9,4.1,4.2,5.4,6.8c3.6,7,7,14.2,9.7,21.7c1.2,3.3,1.9,6.8,2.7,10.3
		C208.5,355.8,209,357,209.6,358.3z"/>
	<path class="st3" d="M279.7,325.5c-0.1,0.1-0.1,0.3-0.2,0.3c-0.1,0-0.3,0-0.4-0.1c-0.3-0.3-0.6-0.6-0.9-1c-2.7-3-6-5.4-8.5-8.5
		c-1.5-1.8-2.7-3.7-3.4-6c-0.7-2-1.4-4-2.3-6c-0.1-0.2-0.2-0.4-0.3-0.7c0-0.3-0.2-0.7,0.2-0.8c0.4-0.1,0.4,0.3,0.5,0.5
		c0.8,1.9,1.6,3.8,2.3,5.7c1,2.7,2.5,5.1,4.5,7.2c2.6,2.8,5.5,5.4,8,8.4C279.3,324.9,279.5,325.2,279.7,325.5z"/>
</g>
<g id="DESIGNED_BY_FREEPIK">
</g>
</svg>
